<mxfile host="app.diagrams.net" modified="2023-10-30T12:34:15.785Z" agent="Mozilla/5.0 (Windows NT 10.0; Win64; x64) AppleWebKit/537.36 (KHTML, like Gecko) Chrome/118.0.0.0 Safari/537.36" etag="0ZetyPKkRZyluCvPoBX4" version="22.0.8" type="github">
  <diagram name="Page-1" id="DbBHYvyaOzuhuRdD_LNz">
    <mxGraphModel dx="3176" dy="1856" grid="1" gridSize="10" guides="1" tooltips="1" connect="1" arrows="1" fold="1" page="1" pageScale="1" pageWidth="2339" pageHeight="3300" math="0" shadow="0">
      <root>
        <mxCell id="0" />
        <mxCell id="1" parent="0" />
        <mxCell id="ekOt9fe8lZH-tU6qronm-266" value="" style="edgeStyle=orthogonalEdgeStyle;rounded=0;orthogonalLoop=1;jettySize=auto;html=1;" edge="1" parent="1" source="ekOt9fe8lZH-tU6qronm-62" target="ekOt9fe8lZH-tU6qronm-64">
          <mxGeometry relative="1" as="geometry" />
        </mxCell>
        <mxCell id="ekOt9fe8lZH-tU6qronm-62" value="&lt;font style=&quot;font-size: 16px;&quot;&gt;START&lt;/font&gt;" style="ellipse;whiteSpace=wrap;html=1;" vertex="1" parent="1">
          <mxGeometry x="394" y="230" width="154" height="53" as="geometry" />
        </mxCell>
        <mxCell id="ekOt9fe8lZH-tU6qronm-293" value="" style="edgeStyle=orthogonalEdgeStyle;rounded=0;orthogonalLoop=1;jettySize=auto;html=1;" edge="1" parent="1" source="ekOt9fe8lZH-tU6qronm-64" target="ekOt9fe8lZH-tU6qronm-69">
          <mxGeometry relative="1" as="geometry" />
        </mxCell>
        <mxCell id="ekOt9fe8lZH-tU6qronm-64" value="&lt;font style=&quot;font-size: 16px;&quot;&gt;Display menu&lt;/font&gt;" style="rounded=0;whiteSpace=wrap;html=1;" vertex="1" parent="1">
          <mxGeometry x="373.5" y="343" width="195" height="40" as="geometry" />
        </mxCell>
        <mxCell id="ekOt9fe8lZH-tU6qronm-73" value="" style="edgeStyle=orthogonalEdgeStyle;rounded=0;orthogonalLoop=1;jettySize=auto;html=1;" edge="1" parent="1" source="ekOt9fe8lZH-tU6qronm-66" target="ekOt9fe8lZH-tU6qronm-70">
          <mxGeometry relative="1" as="geometry" />
        </mxCell>
        <mxCell id="ekOt9fe8lZH-tU6qronm-236" style="edgeStyle=orthogonalEdgeStyle;rounded=0;orthogonalLoop=1;jettySize=auto;html=1;entryX=0.5;entryY=0;entryDx=0;entryDy=0;" edge="1" parent="1" source="ekOt9fe8lZH-tU6qronm-66" target="ekOt9fe8lZH-tU6qronm-233">
          <mxGeometry relative="1" as="geometry" />
        </mxCell>
        <mxCell id="ekOt9fe8lZH-tU6qronm-66" value="&lt;font style=&quot;font-size: 16px;&quot;&gt;case 1&lt;/font&gt;" style="rhombus;whiteSpace=wrap;html=1;" vertex="1" parent="1">
          <mxGeometry x="374.5" y="520" width="193.5" height="80" as="geometry" />
        </mxCell>
        <mxCell id="ekOt9fe8lZH-tU6qronm-294" value="" style="edgeStyle=orthogonalEdgeStyle;rounded=0;orthogonalLoop=1;jettySize=auto;html=1;" edge="1" parent="1" source="ekOt9fe8lZH-tU6qronm-69" target="ekOt9fe8lZH-tU6qronm-66">
          <mxGeometry relative="1" as="geometry" />
        </mxCell>
        <mxCell id="ekOt9fe8lZH-tU6qronm-336" value="" style="edgeStyle=orthogonalEdgeStyle;rounded=0;orthogonalLoop=1;jettySize=auto;html=1;" edge="1" parent="1" source="ekOt9fe8lZH-tU6qronm-69" target="ekOt9fe8lZH-tU6qronm-335">
          <mxGeometry relative="1" as="geometry" />
        </mxCell>
        <mxCell id="ekOt9fe8lZH-tU6qronm-69" value="&lt;font style=&quot;font-size: 16px;&quot;&gt;Ask option&lt;/font&gt;" style="shape=parallelogram;perimeter=parallelogramPerimeter;whiteSpace=wrap;html=1;fixedSize=1;" vertex="1" parent="1">
          <mxGeometry x="371" y="434" width="200" height="40" as="geometry" />
        </mxCell>
        <mxCell id="ekOt9fe8lZH-tU6qronm-74" value="" style="edgeStyle=orthogonalEdgeStyle;rounded=0;orthogonalLoop=1;jettySize=auto;html=1;" edge="1" parent="1" source="ekOt9fe8lZH-tU6qronm-70" target="ekOt9fe8lZH-tU6qronm-71">
          <mxGeometry relative="1" as="geometry" />
        </mxCell>
        <mxCell id="ekOt9fe8lZH-tU6qronm-70" value="&lt;font style=&quot;font-size: 16px;&quot;&gt;Ask product type&lt;/font&gt;" style="shape=parallelogram;perimeter=parallelogramPerimeter;whiteSpace=wrap;html=1;fixedSize=1;" vertex="1" parent="1">
          <mxGeometry x="630" y="540" width="220" height="40" as="geometry" />
        </mxCell>
        <mxCell id="ekOt9fe8lZH-tU6qronm-75" value="" style="edgeStyle=orthogonalEdgeStyle;rounded=0;orthogonalLoop=1;jettySize=auto;html=1;" edge="1" parent="1" source="ekOt9fe8lZH-tU6qronm-71" target="ekOt9fe8lZH-tU6qronm-72">
          <mxGeometry relative="1" as="geometry" />
        </mxCell>
        <mxCell id="ekOt9fe8lZH-tU6qronm-92" style="edgeStyle=orthogonalEdgeStyle;rounded=0;orthogonalLoop=1;jettySize=auto;html=1;" edge="1" parent="1" source="ekOt9fe8lZH-tU6qronm-71" target="ekOt9fe8lZH-tU6qronm-91">
          <mxGeometry relative="1" as="geometry" />
        </mxCell>
        <mxCell id="ekOt9fe8lZH-tU6qronm-71" value="&lt;font style=&quot;font-size: 16px;&quot;&gt;type = 1&lt;/font&gt;" style="rhombus;whiteSpace=wrap;html=1;" vertex="1" parent="1">
          <mxGeometry x="920" y="525" width="150" height="70" as="geometry" />
        </mxCell>
        <mxCell id="ekOt9fe8lZH-tU6qronm-94" value="" style="edgeStyle=orthogonalEdgeStyle;rounded=0;orthogonalLoop=1;jettySize=auto;html=1;" edge="1" parent="1" source="ekOt9fe8lZH-tU6qronm-72" target="ekOt9fe8lZH-tU6qronm-93">
          <mxGeometry relative="1" as="geometry" />
        </mxCell>
        <mxCell id="ekOt9fe8lZH-tU6qronm-72" value="&lt;font style=&quot;font-size: 16px;&quot;&gt;Ask choice&lt;/font&gt;" style="shape=parallelogram;perimeter=parallelogramPerimeter;whiteSpace=wrap;html=1;fixedSize=1;" vertex="1" parent="1">
          <mxGeometry x="884.75" y="805" width="220" height="40" as="geometry" />
        </mxCell>
        <mxCell id="ekOt9fe8lZH-tU6qronm-83" value="" style="edgeStyle=orthogonalEdgeStyle;rounded=0;orthogonalLoop=1;jettySize=auto;html=1;" edge="1" parent="1" source="ekOt9fe8lZH-tU6qronm-80" target="ekOt9fe8lZH-tU6qronm-81">
          <mxGeometry relative="1" as="geometry" />
        </mxCell>
        <mxCell id="ekOt9fe8lZH-tU6qronm-80" value="&lt;font style=&quot;font-size: 16px;&quot;&gt;Display product details&lt;br&gt;based on choice&lt;/font&gt;" style="rounded=0;whiteSpace=wrap;html=1;" vertex="1" parent="1">
          <mxGeometry x="882.5" y="1339" width="225" height="50" as="geometry" />
        </mxCell>
        <mxCell id="ekOt9fe8lZH-tU6qronm-87" value="" style="edgeStyle=orthogonalEdgeStyle;rounded=0;orthogonalLoop=1;jettySize=auto;html=1;" edge="1" parent="1" source="ekOt9fe8lZH-tU6qronm-81" target="ekOt9fe8lZH-tU6qronm-84">
          <mxGeometry relative="1" as="geometry" />
        </mxCell>
        <mxCell id="ekOt9fe8lZH-tU6qronm-81" value="&lt;font style=&quot;font-size: 16px;&quot;&gt;Ask items&lt;/font&gt;" style="shape=parallelogram;perimeter=parallelogramPerimeter;whiteSpace=wrap;html=1;fixedSize=1;" vertex="1" parent="1">
          <mxGeometry x="905" y="1429" width="180" height="40" as="geometry" />
        </mxCell>
        <mxCell id="ekOt9fe8lZH-tU6qronm-88" value="" style="edgeStyle=orthogonalEdgeStyle;rounded=0;orthogonalLoop=1;jettySize=auto;html=1;" edge="1" parent="1" source="ekOt9fe8lZH-tU6qronm-84" target="ekOt9fe8lZH-tU6qronm-86">
          <mxGeometry relative="1" as="geometry" />
        </mxCell>
        <mxCell id="ekOt9fe8lZH-tU6qronm-90" value="" style="edgeStyle=orthogonalEdgeStyle;rounded=0;orthogonalLoop=1;jettySize=auto;html=1;" edge="1" parent="1" source="ekOt9fe8lZH-tU6qronm-84" target="ekOt9fe8lZH-tU6qronm-89">
          <mxGeometry relative="1" as="geometry" />
        </mxCell>
        <mxCell id="ekOt9fe8lZH-tU6qronm-84" value="&lt;font style=&quot;font-size: 16px;&quot;&gt;items &amp;gt;=1 &amp;amp; items&amp;lt;=3&lt;/font&gt;" style="rhombus;whiteSpace=wrap;html=1;" vertex="1" parent="1">
          <mxGeometry x="883.75" y="1509" width="222.5" height="80" as="geometry" />
        </mxCell>
        <mxCell id="ekOt9fe8lZH-tU6qronm-101" value="" style="edgeStyle=orthogonalEdgeStyle;rounded=0;orthogonalLoop=1;jettySize=auto;html=1;" edge="1" parent="1" source="ekOt9fe8lZH-tU6qronm-86" target="ekOt9fe8lZH-tU6qronm-100">
          <mxGeometry relative="1" as="geometry" />
        </mxCell>
        <mxCell id="ekOt9fe8lZH-tU6qronm-86" value="&lt;font style=&quot;font-size: 16px;&quot;&gt;Ask quantity&lt;/font&gt;" style="shape=parallelogram;perimeter=parallelogramPerimeter;whiteSpace=wrap;html=1;fixedSize=1;" vertex="1" parent="1">
          <mxGeometry x="905" y="1629" width="180" height="40" as="geometry" />
        </mxCell>
        <mxCell id="ekOt9fe8lZH-tU6qronm-284" style="edgeStyle=orthogonalEdgeStyle;rounded=0;orthogonalLoop=1;jettySize=auto;html=1;endArrow=none;endFill=0;" edge="1" parent="1" source="ekOt9fe8lZH-tU6qronm-89">
          <mxGeometry relative="1" as="geometry">
            <mxPoint x="160" y="1549" as="targetPoint" />
          </mxGeometry>
        </mxCell>
        <mxCell id="ekOt9fe8lZH-tU6qronm-89" value="&lt;font style=&quot;font-size: 16px;&quot;&gt;Display Invalid Input&lt;/font&gt;" style="rounded=0;whiteSpace=wrap;html=1;" vertex="1" parent="1">
          <mxGeometry x="640" y="1529" width="180" height="40" as="geometry" />
        </mxCell>
        <mxCell id="ekOt9fe8lZH-tU6qronm-108" value="" style="edgeStyle=orthogonalEdgeStyle;rounded=0;orthogonalLoop=1;jettySize=auto;html=1;" edge="1" parent="1" source="ekOt9fe8lZH-tU6qronm-91" target="ekOt9fe8lZH-tU6qronm-97">
          <mxGeometry relative="1" as="geometry" />
        </mxCell>
        <mxCell id="ekOt9fe8lZH-tU6qronm-133" style="edgeStyle=orthogonalEdgeStyle;rounded=0;orthogonalLoop=1;jettySize=auto;html=1;entryX=0;entryY=0.5;entryDx=0;entryDy=0;" edge="1" parent="1" source="ekOt9fe8lZH-tU6qronm-91" target="ekOt9fe8lZH-tU6qronm-118">
          <mxGeometry relative="1" as="geometry" />
        </mxCell>
        <mxCell id="ekOt9fe8lZH-tU6qronm-91" value="&lt;font style=&quot;font-size: 16px;&quot;&gt;type = 2&lt;/font&gt;" style="rhombus;whiteSpace=wrap;html=1;" vertex="1" parent="1">
          <mxGeometry x="1260" y="525" width="150" height="70" as="geometry" />
        </mxCell>
        <mxCell id="ekOt9fe8lZH-tU6qronm-95" value="" style="edgeStyle=orthogonalEdgeStyle;rounded=0;orthogonalLoop=1;jettySize=auto;html=1;" edge="1" parent="1" source="ekOt9fe8lZH-tU6qronm-93" target="ekOt9fe8lZH-tU6qronm-80">
          <mxGeometry relative="1" as="geometry" />
        </mxCell>
        <mxCell id="ekOt9fe8lZH-tU6qronm-181" value="" style="edgeStyle=orthogonalEdgeStyle;rounded=0;orthogonalLoop=1;jettySize=auto;html=1;" edge="1" parent="1" source="ekOt9fe8lZH-tU6qronm-93" target="ekOt9fe8lZH-tU6qronm-166">
          <mxGeometry relative="1" as="geometry" />
        </mxCell>
        <mxCell id="ekOt9fe8lZH-tU6qronm-93" value="&lt;font style=&quot;font-size: 16px;&quot;&gt;choice &amp;gt;= 1&lt;br&gt;&amp;amp; choice &amp;lt;=3&lt;/font&gt;" style="rhombus;whiteSpace=wrap;html=1;" vertex="1" parent="1">
          <mxGeometry x="878.5" y="1217" width="232.5" height="80" as="geometry" />
        </mxCell>
        <mxCell id="ekOt9fe8lZH-tU6qronm-110" style="edgeStyle=orthogonalEdgeStyle;rounded=0;orthogonalLoop=1;jettySize=auto;html=1;entryX=0.5;entryY=0;entryDx=0;entryDy=0;" edge="1" parent="1" source="ekOt9fe8lZH-tU6qronm-97" target="ekOt9fe8lZH-tU6qronm-98">
          <mxGeometry relative="1" as="geometry" />
        </mxCell>
        <mxCell id="ekOt9fe8lZH-tU6qronm-97" value="&lt;font style=&quot;font-size: 16px;&quot;&gt;Display product details&lt;br&gt;based on type&lt;/font&gt;" style="rounded=0;whiteSpace=wrap;html=1;" vertex="1" parent="1">
          <mxGeometry x="1223.01" y="630" width="225" height="50" as="geometry" />
        </mxCell>
        <mxCell id="ekOt9fe8lZH-tU6qronm-111" value="" style="edgeStyle=orthogonalEdgeStyle;rounded=0;orthogonalLoop=1;jettySize=auto;html=1;" edge="1" parent="1" source="ekOt9fe8lZH-tU6qronm-98" target="ekOt9fe8lZH-tU6qronm-99">
          <mxGeometry relative="1" as="geometry" />
        </mxCell>
        <mxCell id="ekOt9fe8lZH-tU6qronm-98" value="&lt;font style=&quot;font-size: 16px;&quot;&gt;Ask confirmation&lt;/font&gt;" style="shape=parallelogram;perimeter=parallelogramPerimeter;whiteSpace=wrap;html=1;fixedSize=1;" vertex="1" parent="1">
          <mxGeometry x="1225" y="720" width="220" height="40" as="geometry" />
        </mxCell>
        <mxCell id="ekOt9fe8lZH-tU6qronm-105" value="" style="edgeStyle=orthogonalEdgeStyle;rounded=0;orthogonalLoop=1;jettySize=auto;html=1;" edge="1" parent="1" source="ekOt9fe8lZH-tU6qronm-99" target="ekOt9fe8lZH-tU6qronm-103">
          <mxGeometry relative="1" as="geometry" />
        </mxCell>
        <mxCell id="ekOt9fe8lZH-tU6qronm-115" value="" style="edgeStyle=orthogonalEdgeStyle;rounded=0;orthogonalLoop=1;jettySize=auto;html=1;" edge="1" parent="1" source="ekOt9fe8lZH-tU6qronm-99" target="ekOt9fe8lZH-tU6qronm-113">
          <mxGeometry relative="1" as="geometry" />
        </mxCell>
        <mxCell id="ekOt9fe8lZH-tU6qronm-99" value="&lt;span style=&quot;font-size: 16px;&quot;&gt;Confirmation = &#39;y&#39;&lt;/span&gt;" style="rhombus;whiteSpace=wrap;html=1;" vertex="1" parent="1">
          <mxGeometry x="1230.01" y="790" width="211.01" height="70" as="geometry" />
        </mxCell>
        <mxCell id="ekOt9fe8lZH-tU6qronm-222" style="edgeStyle=orthogonalEdgeStyle;rounded=0;orthogonalLoop=1;jettySize=auto;html=1;entryX=0;entryY=0.75;entryDx=0;entryDy=0;" edge="1" parent="1" source="ekOt9fe8lZH-tU6qronm-100" target="ekOt9fe8lZH-tU6qronm-221">
          <mxGeometry relative="1" as="geometry">
            <Array as="points">
              <mxPoint x="995" y="1918" />
            </Array>
          </mxGeometry>
        </mxCell>
        <mxCell id="ekOt9fe8lZH-tU6qronm-100" value="&lt;font style=&quot;font-size: 16px;&quot;&gt;Add item into cart&lt;/font&gt;" style="rounded=0;whiteSpace=wrap;html=1;" vertex="1" parent="1">
          <mxGeometry x="899.63" y="1712" width="190.25" height="40" as="geometry" />
        </mxCell>
        <mxCell id="ekOt9fe8lZH-tU6qronm-112" value="" style="edgeStyle=orthogonalEdgeStyle;rounded=0;orthogonalLoop=1;jettySize=auto;html=1;" edge="1" parent="1" source="ekOt9fe8lZH-tU6qronm-103" target="ekOt9fe8lZH-tU6qronm-104">
          <mxGeometry relative="1" as="geometry" />
        </mxCell>
        <mxCell id="ekOt9fe8lZH-tU6qronm-103" value="&lt;font style=&quot;font-size: 16px;&quot;&gt;Ask quantity&lt;/font&gt;" style="shape=parallelogram;perimeter=parallelogramPerimeter;whiteSpace=wrap;html=1;fixedSize=1;" vertex="1" parent="1">
          <mxGeometry x="1245.51" y="900" width="180" height="40" as="geometry" />
        </mxCell>
        <mxCell id="ekOt9fe8lZH-tU6qronm-217" style="edgeStyle=orthogonalEdgeStyle;rounded=0;orthogonalLoop=1;jettySize=auto;html=1;entryX=0;entryY=0.75;entryDx=0;entryDy=0;" edge="1" parent="1" source="ekOt9fe8lZH-tU6qronm-104" target="ekOt9fe8lZH-tU6qronm-216">
          <mxGeometry relative="1" as="geometry">
            <Array as="points">
              <mxPoint x="1335" y="1118" />
              <mxPoint x="1740" y="1118" />
            </Array>
          </mxGeometry>
        </mxCell>
        <mxCell id="ekOt9fe8lZH-tU6qronm-104" value="&lt;font style=&quot;font-size: 16px;&quot;&gt;Add item into cart&lt;/font&gt;" style="rounded=0;whiteSpace=wrap;html=1;" vertex="1" parent="1">
          <mxGeometry x="1239.8799999999999" y="980" width="190.25" height="40" as="geometry" />
        </mxCell>
        <mxCell id="ekOt9fe8lZH-tU6qronm-116" value="" style="edgeStyle=orthogonalEdgeStyle;rounded=0;orthogonalLoop=1;jettySize=auto;html=1;" edge="1" parent="1" source="ekOt9fe8lZH-tU6qronm-113" target="ekOt9fe8lZH-tU6qronm-114">
          <mxGeometry relative="1" as="geometry" />
        </mxCell>
        <mxCell id="ekOt9fe8lZH-tU6qronm-113" value="&lt;span style=&quot;font-size: 16px;&quot;&gt;Confirmation = &#39;n&#39;&lt;/span&gt;" style="rhombus;whiteSpace=wrap;html=1;" vertex="1" parent="1">
          <mxGeometry x="1510" y="790" width="211.01" height="70" as="geometry" />
        </mxCell>
        <mxCell id="ekOt9fe8lZH-tU6qronm-280" style="edgeStyle=orthogonalEdgeStyle;rounded=0;orthogonalLoop=1;jettySize=auto;html=1;endArrow=none;endFill=0;" edge="1" parent="1" source="ekOt9fe8lZH-tU6qronm-114">
          <mxGeometry relative="1" as="geometry">
            <mxPoint x="160" y="1050" as="targetPoint" />
            <Array as="points">
              <mxPoint x="1616" y="1060" />
              <mxPoint x="160" y="1060" />
            </Array>
          </mxGeometry>
        </mxCell>
        <mxCell id="ekOt9fe8lZH-tU6qronm-114" value="&lt;font style=&quot;font-size: 16px;&quot;&gt;Display failed message&lt;/font&gt;" style="rounded=0;whiteSpace=wrap;html=1;" vertex="1" parent="1">
          <mxGeometry x="1510.69" y="900" width="209.62" height="40" as="geometry" />
        </mxCell>
        <mxCell id="ekOt9fe8lZH-tU6qronm-117" value="" style="edgeStyle=orthogonalEdgeStyle;rounded=0;orthogonalLoop=1;jettySize=auto;html=1;" edge="1" source="ekOt9fe8lZH-tU6qronm-118" target="ekOt9fe8lZH-tU6qronm-120" parent="1">
          <mxGeometry relative="1" as="geometry" />
        </mxCell>
        <mxCell id="ekOt9fe8lZH-tU6qronm-149" style="edgeStyle=orthogonalEdgeStyle;rounded=0;orthogonalLoop=1;jettySize=auto;html=1;" edge="1" parent="1" source="ekOt9fe8lZH-tU6qronm-118" target="ekOt9fe8lZH-tU6qronm-135">
          <mxGeometry relative="1" as="geometry" />
        </mxCell>
        <mxCell id="ekOt9fe8lZH-tU6qronm-118" value="&lt;font style=&quot;font-size: 16px;&quot;&gt;type = 3&lt;/font&gt;" style="rhombus;whiteSpace=wrap;html=1;" vertex="1" parent="1">
          <mxGeometry x="1806.99" y="525" width="150" height="70" as="geometry" />
        </mxCell>
        <mxCell id="ekOt9fe8lZH-tU6qronm-119" style="edgeStyle=orthogonalEdgeStyle;rounded=0;orthogonalLoop=1;jettySize=auto;html=1;entryX=0.5;entryY=0;entryDx=0;entryDy=0;" edge="1" source="ekOt9fe8lZH-tU6qronm-120" target="ekOt9fe8lZH-tU6qronm-122" parent="1">
          <mxGeometry relative="1" as="geometry" />
        </mxCell>
        <mxCell id="ekOt9fe8lZH-tU6qronm-120" value="&lt;font style=&quot;font-size: 16px;&quot;&gt;Display product details&lt;br&gt;based on type&lt;/font&gt;" style="rounded=0;whiteSpace=wrap;html=1;" vertex="1" parent="1">
          <mxGeometry x="1770" y="630" width="225" height="50" as="geometry" />
        </mxCell>
        <mxCell id="ekOt9fe8lZH-tU6qronm-121" value="" style="edgeStyle=orthogonalEdgeStyle;rounded=0;orthogonalLoop=1;jettySize=auto;html=1;" edge="1" source="ekOt9fe8lZH-tU6qronm-122" target="ekOt9fe8lZH-tU6qronm-125" parent="1">
          <mxGeometry relative="1" as="geometry" />
        </mxCell>
        <mxCell id="ekOt9fe8lZH-tU6qronm-122" value="&lt;font style=&quot;font-size: 16px;&quot;&gt;Ask confirmation&lt;/font&gt;" style="shape=parallelogram;perimeter=parallelogramPerimeter;whiteSpace=wrap;html=1;fixedSize=1;" vertex="1" parent="1">
          <mxGeometry x="1771.99" y="720" width="220" height="40" as="geometry" />
        </mxCell>
        <mxCell id="ekOt9fe8lZH-tU6qronm-123" value="" style="edgeStyle=orthogonalEdgeStyle;rounded=0;orthogonalLoop=1;jettySize=auto;html=1;" edge="1" source="ekOt9fe8lZH-tU6qronm-125" target="ekOt9fe8lZH-tU6qronm-127" parent="1">
          <mxGeometry relative="1" as="geometry" />
        </mxCell>
        <mxCell id="ekOt9fe8lZH-tU6qronm-124" value="" style="edgeStyle=orthogonalEdgeStyle;rounded=0;orthogonalLoop=1;jettySize=auto;html=1;" edge="1" source="ekOt9fe8lZH-tU6qronm-125" target="ekOt9fe8lZH-tU6qronm-130" parent="1">
          <mxGeometry relative="1" as="geometry" />
        </mxCell>
        <mxCell id="ekOt9fe8lZH-tU6qronm-125" value="&lt;span style=&quot;font-size: 16px;&quot;&gt;Confirmation = &#39;y&#39;&lt;/span&gt;" style="rhombus;whiteSpace=wrap;html=1;" vertex="1" parent="1">
          <mxGeometry x="1777" y="790" width="211.01" height="70" as="geometry" />
        </mxCell>
        <mxCell id="ekOt9fe8lZH-tU6qronm-126" value="" style="edgeStyle=orthogonalEdgeStyle;rounded=0;orthogonalLoop=1;jettySize=auto;html=1;" edge="1" source="ekOt9fe8lZH-tU6qronm-127" target="ekOt9fe8lZH-tU6qronm-128" parent="1">
          <mxGeometry relative="1" as="geometry" />
        </mxCell>
        <mxCell id="ekOt9fe8lZH-tU6qronm-127" value="&lt;font style=&quot;font-size: 16px;&quot;&gt;Ask quantity&lt;/font&gt;" style="shape=parallelogram;perimeter=parallelogramPerimeter;whiteSpace=wrap;html=1;fixedSize=1;" vertex="1" parent="1">
          <mxGeometry x="1792.5" y="900" width="180" height="40" as="geometry" />
        </mxCell>
        <mxCell id="ekOt9fe8lZH-tU6qronm-218" style="edgeStyle=orthogonalEdgeStyle;rounded=0;orthogonalLoop=1;jettySize=auto;html=1;entryX=0;entryY=0.5;entryDx=0;entryDy=0;" edge="1" parent="1" source="ekOt9fe8lZH-tU6qronm-128" target="ekOt9fe8lZH-tU6qronm-216">
          <mxGeometry relative="1" as="geometry">
            <Array as="points">
              <mxPoint x="1882" y="1105" />
            </Array>
          </mxGeometry>
        </mxCell>
        <mxCell id="ekOt9fe8lZH-tU6qronm-128" value="&lt;font style=&quot;font-size: 16px;&quot;&gt;Add item into cart&lt;/font&gt;" style="rounded=0;whiteSpace=wrap;html=1;" vertex="1" parent="1">
          <mxGeometry x="1786.87" y="980" width="190.25" height="40" as="geometry" />
        </mxCell>
        <mxCell id="ekOt9fe8lZH-tU6qronm-129" value="" style="edgeStyle=orthogonalEdgeStyle;rounded=0;orthogonalLoop=1;jettySize=auto;html=1;" edge="1" source="ekOt9fe8lZH-tU6qronm-130" target="ekOt9fe8lZH-tU6qronm-131" parent="1">
          <mxGeometry relative="1" as="geometry" />
        </mxCell>
        <mxCell id="ekOt9fe8lZH-tU6qronm-130" value="&lt;span style=&quot;font-size: 16px;&quot;&gt;Confirmation = &#39;n&#39;&lt;/span&gt;" style="rhombus;whiteSpace=wrap;html=1;" vertex="1" parent="1">
          <mxGeometry x="2056.99" y="790" width="211.01" height="70" as="geometry" />
        </mxCell>
        <mxCell id="ekOt9fe8lZH-tU6qronm-276" style="edgeStyle=orthogonalEdgeStyle;rounded=0;orthogonalLoop=1;jettySize=auto;html=1;endArrow=none;endFill=0;" edge="1" parent="1" source="ekOt9fe8lZH-tU6qronm-131">
          <mxGeometry relative="1" as="geometry">
            <mxPoint x="1610" y="1060" as="targetPoint" />
            <Array as="points">
              <mxPoint x="2163" y="1060" />
            </Array>
          </mxGeometry>
        </mxCell>
        <mxCell id="ekOt9fe8lZH-tU6qronm-131" value="&lt;font style=&quot;font-size: 16px;&quot;&gt;Display failed message&lt;/font&gt;" style="rounded=0;whiteSpace=wrap;html=1;" vertex="1" parent="1">
          <mxGeometry x="2057.6800000000003" y="900" width="209.62" height="40" as="geometry" />
        </mxCell>
        <mxCell id="ekOt9fe8lZH-tU6qronm-134" value="" style="edgeStyle=orthogonalEdgeStyle;rounded=0;orthogonalLoop=1;jettySize=auto;html=1;" edge="1" source="ekOt9fe8lZH-tU6qronm-135" target="ekOt9fe8lZH-tU6qronm-137" parent="1">
          <mxGeometry relative="1" as="geometry" />
        </mxCell>
        <mxCell id="ekOt9fe8lZH-tU6qronm-298" style="edgeStyle=orthogonalEdgeStyle;rounded=0;orthogonalLoop=1;jettySize=auto;html=1;entryX=0;entryY=0.5;entryDx=0;entryDy=0;" edge="1" parent="1" source="ekOt9fe8lZH-tU6qronm-135" target="ekOt9fe8lZH-tU6qronm-231">
          <mxGeometry relative="1" as="geometry" />
        </mxCell>
        <mxCell id="ekOt9fe8lZH-tU6qronm-135" value="&lt;font style=&quot;font-size: 16px;&quot;&gt;type = 4&lt;/font&gt;" style="rhombus;whiteSpace=wrap;html=1;" vertex="1" parent="1">
          <mxGeometry x="2375.99" y="525" width="150" height="70" as="geometry" />
        </mxCell>
        <mxCell id="ekOt9fe8lZH-tU6qronm-136" style="edgeStyle=orthogonalEdgeStyle;rounded=0;orthogonalLoop=1;jettySize=auto;html=1;entryX=0.5;entryY=0;entryDx=0;entryDy=0;" edge="1" source="ekOt9fe8lZH-tU6qronm-137" target="ekOt9fe8lZH-tU6qronm-139" parent="1">
          <mxGeometry relative="1" as="geometry" />
        </mxCell>
        <mxCell id="ekOt9fe8lZH-tU6qronm-137" value="&lt;font style=&quot;font-size: 16px;&quot;&gt;Display product details&lt;br&gt;based on type&lt;/font&gt;" style="rounded=0;whiteSpace=wrap;html=1;" vertex="1" parent="1">
          <mxGeometry x="2339" y="630" width="225" height="50" as="geometry" />
        </mxCell>
        <mxCell id="ekOt9fe8lZH-tU6qronm-138" value="" style="edgeStyle=orthogonalEdgeStyle;rounded=0;orthogonalLoop=1;jettySize=auto;html=1;" edge="1" source="ekOt9fe8lZH-tU6qronm-139" target="ekOt9fe8lZH-tU6qronm-142" parent="1">
          <mxGeometry relative="1" as="geometry" />
        </mxCell>
        <mxCell id="ekOt9fe8lZH-tU6qronm-139" value="&lt;font style=&quot;font-size: 16px;&quot;&gt;Ask confirmation&lt;/font&gt;" style="shape=parallelogram;perimeter=parallelogramPerimeter;whiteSpace=wrap;html=1;fixedSize=1;" vertex="1" parent="1">
          <mxGeometry x="2340.99" y="720" width="220" height="40" as="geometry" />
        </mxCell>
        <mxCell id="ekOt9fe8lZH-tU6qronm-140" value="" style="edgeStyle=orthogonalEdgeStyle;rounded=0;orthogonalLoop=1;jettySize=auto;html=1;" edge="1" source="ekOt9fe8lZH-tU6qronm-142" target="ekOt9fe8lZH-tU6qronm-144" parent="1">
          <mxGeometry relative="1" as="geometry" />
        </mxCell>
        <mxCell id="ekOt9fe8lZH-tU6qronm-141" value="" style="edgeStyle=orthogonalEdgeStyle;rounded=0;orthogonalLoop=1;jettySize=auto;html=1;" edge="1" source="ekOt9fe8lZH-tU6qronm-142" target="ekOt9fe8lZH-tU6qronm-147" parent="1">
          <mxGeometry relative="1" as="geometry" />
        </mxCell>
        <mxCell id="ekOt9fe8lZH-tU6qronm-142" value="&lt;span style=&quot;font-size: 16px;&quot;&gt;Confirmation = &#39;y&#39;&lt;/span&gt;" style="rhombus;whiteSpace=wrap;html=1;" vertex="1" parent="1">
          <mxGeometry x="2346" y="790" width="211.01" height="70" as="geometry" />
        </mxCell>
        <mxCell id="ekOt9fe8lZH-tU6qronm-143" value="" style="edgeStyle=orthogonalEdgeStyle;rounded=0;orthogonalLoop=1;jettySize=auto;html=1;" edge="1" source="ekOt9fe8lZH-tU6qronm-144" target="ekOt9fe8lZH-tU6qronm-145" parent="1">
          <mxGeometry relative="1" as="geometry" />
        </mxCell>
        <mxCell id="ekOt9fe8lZH-tU6qronm-144" value="&lt;font style=&quot;font-size: 16px;&quot;&gt;Ask quantity&lt;/font&gt;" style="shape=parallelogram;perimeter=parallelogramPerimeter;whiteSpace=wrap;html=1;fixedSize=1;" vertex="1" parent="1">
          <mxGeometry x="2361.5" y="900" width="180" height="40" as="geometry" />
        </mxCell>
        <mxCell id="ekOt9fe8lZH-tU6qronm-220" style="edgeStyle=orthogonalEdgeStyle;rounded=0;orthogonalLoop=1;jettySize=auto;html=1;entryX=1;entryY=0.5;entryDx=0;entryDy=0;" edge="1" parent="1" source="ekOt9fe8lZH-tU6qronm-145" target="ekOt9fe8lZH-tU6qronm-216">
          <mxGeometry relative="1" as="geometry">
            <Array as="points">
              <mxPoint x="2451" y="1105" />
            </Array>
          </mxGeometry>
        </mxCell>
        <mxCell id="ekOt9fe8lZH-tU6qronm-145" value="&lt;font style=&quot;font-size: 16px;&quot;&gt;Add item into cart&lt;/font&gt;" style="rounded=0;whiteSpace=wrap;html=1;" vertex="1" parent="1">
          <mxGeometry x="2355.87" y="980" width="190.25" height="40" as="geometry" />
        </mxCell>
        <mxCell id="ekOt9fe8lZH-tU6qronm-146" value="" style="edgeStyle=orthogonalEdgeStyle;rounded=0;orthogonalLoop=1;jettySize=auto;html=1;" edge="1" source="ekOt9fe8lZH-tU6qronm-147" target="ekOt9fe8lZH-tU6qronm-148" parent="1">
          <mxGeometry relative="1" as="geometry" />
        </mxCell>
        <mxCell id="ekOt9fe8lZH-tU6qronm-147" value="&lt;span style=&quot;font-size: 16px;&quot;&gt;Confirmation = &#39;n&#39;&lt;/span&gt;" style="rhombus;whiteSpace=wrap;html=1;" vertex="1" parent="1">
          <mxGeometry x="2625.99" y="790" width="211.01" height="70" as="geometry" />
        </mxCell>
        <mxCell id="ekOt9fe8lZH-tU6qronm-277" style="edgeStyle=orthogonalEdgeStyle;rounded=0;orthogonalLoop=1;jettySize=auto;html=1;endArrow=none;endFill=0;" edge="1" parent="1" source="ekOt9fe8lZH-tU6qronm-148">
          <mxGeometry relative="1" as="geometry">
            <mxPoint x="2160" y="1060.0000000000002" as="targetPoint" />
            <Array as="points">
              <mxPoint x="2732" y="1060" />
            </Array>
          </mxGeometry>
        </mxCell>
        <mxCell id="ekOt9fe8lZH-tU6qronm-148" value="&lt;font style=&quot;font-size: 16px;&quot;&gt;Display failed message&lt;/font&gt;" style="rounded=0;whiteSpace=wrap;html=1;" vertex="1" parent="1">
          <mxGeometry x="2626.6800000000003" y="900" width="209.62" height="40" as="geometry" />
        </mxCell>
        <mxCell id="ekOt9fe8lZH-tU6qronm-180" value="" style="edgeStyle=orthogonalEdgeStyle;rounded=0;orthogonalLoop=1;jettySize=auto;html=1;" edge="1" parent="1" source="ekOt9fe8lZH-tU6qronm-166" target="ekOt9fe8lZH-tU6qronm-168">
          <mxGeometry relative="1" as="geometry" />
        </mxCell>
        <mxCell id="ekOt9fe8lZH-tU6qronm-197" style="edgeStyle=orthogonalEdgeStyle;rounded=0;orthogonalLoop=1;jettySize=auto;html=1;entryX=0;entryY=0.5;entryDx=0;entryDy=0;" edge="1" parent="1" source="ekOt9fe8lZH-tU6qronm-166" target="ekOt9fe8lZH-tU6qronm-183">
          <mxGeometry relative="1" as="geometry" />
        </mxCell>
        <mxCell id="ekOt9fe8lZH-tU6qronm-166" value="&lt;span style=&quot;font-size: 16px;&quot;&gt;choice = 4&lt;/span&gt;" style="rhombus;whiteSpace=wrap;html=1;" vertex="1" parent="1">
          <mxGeometry x="1219.26" y="1217" width="232.5" height="80" as="geometry" />
        </mxCell>
        <mxCell id="ekOt9fe8lZH-tU6qronm-167" style="edgeStyle=orthogonalEdgeStyle;rounded=0;orthogonalLoop=1;jettySize=auto;html=1;entryX=0.5;entryY=0;entryDx=0;entryDy=0;" edge="1" source="ekOt9fe8lZH-tU6qronm-168" target="ekOt9fe8lZH-tU6qronm-170" parent="1">
          <mxGeometry relative="1" as="geometry" />
        </mxCell>
        <mxCell id="ekOt9fe8lZH-tU6qronm-168" value="&lt;font style=&quot;font-size: 16px;&quot;&gt;Display product details&lt;br&gt;Monthly Growner 1 - Fruity&lt;br&gt;&lt;/font&gt;" style="rounded=0;whiteSpace=wrap;html=1;" vertex="1" parent="1">
          <mxGeometry x="1223.01" y="1339" width="225" height="50" as="geometry" />
        </mxCell>
        <mxCell id="ekOt9fe8lZH-tU6qronm-169" value="" style="edgeStyle=orthogonalEdgeStyle;rounded=0;orthogonalLoop=1;jettySize=auto;html=1;" edge="1" source="ekOt9fe8lZH-tU6qronm-170" target="ekOt9fe8lZH-tU6qronm-173" parent="1">
          <mxGeometry relative="1" as="geometry" />
        </mxCell>
        <mxCell id="ekOt9fe8lZH-tU6qronm-170" value="&lt;font style=&quot;font-size: 16px;&quot;&gt;Ask confirmation&lt;/font&gt;" style="shape=parallelogram;perimeter=parallelogramPerimeter;whiteSpace=wrap;html=1;fixedSize=1;" vertex="1" parent="1">
          <mxGeometry x="1225" y="1429" width="220" height="40" as="geometry" />
        </mxCell>
        <mxCell id="ekOt9fe8lZH-tU6qronm-171" value="" style="edgeStyle=orthogonalEdgeStyle;rounded=0;orthogonalLoop=1;jettySize=auto;html=1;" edge="1" source="ekOt9fe8lZH-tU6qronm-173" target="ekOt9fe8lZH-tU6qronm-175" parent="1">
          <mxGeometry relative="1" as="geometry" />
        </mxCell>
        <mxCell id="ekOt9fe8lZH-tU6qronm-172" value="" style="edgeStyle=orthogonalEdgeStyle;rounded=0;orthogonalLoop=1;jettySize=auto;html=1;" edge="1" source="ekOt9fe8lZH-tU6qronm-173" target="ekOt9fe8lZH-tU6qronm-178" parent="1">
          <mxGeometry relative="1" as="geometry" />
        </mxCell>
        <mxCell id="ekOt9fe8lZH-tU6qronm-173" value="&lt;span style=&quot;font-size: 16px;&quot;&gt;Confirmation = &#39;y&#39;&lt;/span&gt;" style="rhombus;whiteSpace=wrap;html=1;" vertex="1" parent="1">
          <mxGeometry x="1230.01" y="1514" width="211.01" height="70" as="geometry" />
        </mxCell>
        <mxCell id="ekOt9fe8lZH-tU6qronm-174" value="" style="edgeStyle=orthogonalEdgeStyle;rounded=0;orthogonalLoop=1;jettySize=auto;html=1;" edge="1" source="ekOt9fe8lZH-tU6qronm-175" target="ekOt9fe8lZH-tU6qronm-176" parent="1">
          <mxGeometry relative="1" as="geometry" />
        </mxCell>
        <mxCell id="ekOt9fe8lZH-tU6qronm-175" value="&lt;font style=&quot;font-size: 16px;&quot;&gt;Ask quantity&lt;/font&gt;" style="shape=parallelogram;perimeter=parallelogramPerimeter;whiteSpace=wrap;html=1;fixedSize=1;" vertex="1" parent="1">
          <mxGeometry x="1245.51" y="1629" width="180" height="40" as="geometry" />
        </mxCell>
        <mxCell id="ekOt9fe8lZH-tU6qronm-223" style="edgeStyle=orthogonalEdgeStyle;rounded=0;orthogonalLoop=1;jettySize=auto;html=1;entryX=0;entryY=0.5;entryDx=0;entryDy=0;" edge="1" parent="1" source="ekOt9fe8lZH-tU6qronm-176" target="ekOt9fe8lZH-tU6qronm-221">
          <mxGeometry relative="1" as="geometry">
            <Array as="points">
              <mxPoint x="1335" y="1905" />
            </Array>
          </mxGeometry>
        </mxCell>
        <mxCell id="ekOt9fe8lZH-tU6qronm-176" value="&lt;font style=&quot;font-size: 16px;&quot;&gt;Add item into cart&lt;/font&gt;" style="rounded=0;whiteSpace=wrap;html=1;" vertex="1" parent="1">
          <mxGeometry x="1239.8799999999999" y="1713" width="190.25" height="40" as="geometry" />
        </mxCell>
        <mxCell id="ekOt9fe8lZH-tU6qronm-177" value="" style="edgeStyle=orthogonalEdgeStyle;rounded=0;orthogonalLoop=1;jettySize=auto;html=1;" edge="1" source="ekOt9fe8lZH-tU6qronm-178" target="ekOt9fe8lZH-tU6qronm-179" parent="1">
          <mxGeometry relative="1" as="geometry" />
        </mxCell>
        <mxCell id="ekOt9fe8lZH-tU6qronm-178" value="&lt;span style=&quot;font-size: 16px;&quot;&gt;Confirmation = &#39;n&#39;&lt;/span&gt;" style="rhombus;whiteSpace=wrap;html=1;" vertex="1" parent="1">
          <mxGeometry x="1509.9999999999998" y="1514" width="211.01" height="70" as="geometry" />
        </mxCell>
        <mxCell id="ekOt9fe8lZH-tU6qronm-281" style="edgeStyle=orthogonalEdgeStyle;rounded=0;orthogonalLoop=1;jettySize=auto;html=1;endArrow=none;endFill=0;" edge="1" parent="1" source="ekOt9fe8lZH-tU6qronm-179">
          <mxGeometry relative="1" as="geometry">
            <mxPoint x="160" y="1790" as="targetPoint" />
            <Array as="points">
              <mxPoint x="1616" y="1800" />
              <mxPoint x="160" y="1800" />
            </Array>
          </mxGeometry>
        </mxCell>
        <mxCell id="ekOt9fe8lZH-tU6qronm-179" value="&lt;font style=&quot;font-size: 16px;&quot;&gt;Display failed message&lt;/font&gt;" style="rounded=0;whiteSpace=wrap;html=1;" vertex="1" parent="1">
          <mxGeometry x="1510.6900000000003" y="1628" width="209.62" height="40" as="geometry" />
        </mxCell>
        <mxCell id="ekOt9fe8lZH-tU6qronm-182" value="" style="edgeStyle=orthogonalEdgeStyle;rounded=0;orthogonalLoop=1;jettySize=auto;html=1;" edge="1" source="ekOt9fe8lZH-tU6qronm-183" target="ekOt9fe8lZH-tU6qronm-185" parent="1">
          <mxGeometry relative="1" as="geometry" />
        </mxCell>
        <mxCell id="ekOt9fe8lZH-tU6qronm-213" style="edgeStyle=orthogonalEdgeStyle;rounded=0;orthogonalLoop=1;jettySize=auto;html=1;entryX=0;entryY=0.5;entryDx=0;entryDy=0;" edge="1" parent="1" source="ekOt9fe8lZH-tU6qronm-183" target="ekOt9fe8lZH-tU6qronm-199">
          <mxGeometry relative="1" as="geometry" />
        </mxCell>
        <mxCell id="ekOt9fe8lZH-tU6qronm-183" value="&lt;span style=&quot;font-size: 16px;&quot;&gt;choice = 5&lt;/span&gt;" style="rhombus;whiteSpace=wrap;html=1;" vertex="1" parent="1">
          <mxGeometry x="1786.87" y="1217" width="232.5" height="80" as="geometry" />
        </mxCell>
        <mxCell id="ekOt9fe8lZH-tU6qronm-184" style="edgeStyle=orthogonalEdgeStyle;rounded=0;orthogonalLoop=1;jettySize=auto;html=1;entryX=0.5;entryY=0;entryDx=0;entryDy=0;" edge="1" source="ekOt9fe8lZH-tU6qronm-185" target="ekOt9fe8lZH-tU6qronm-187" parent="1">
          <mxGeometry relative="1" as="geometry" />
        </mxCell>
        <mxCell id="ekOt9fe8lZH-tU6qronm-185" value="&lt;font style=&quot;font-size: 16px;&quot;&gt;Display product details&lt;br&gt;Monthly Growner 2 - Fruity&lt;br&gt;&lt;/font&gt;" style="rounded=0;whiteSpace=wrap;html=1;" vertex="1" parent="1">
          <mxGeometry x="1790.62" y="1339" width="225" height="50" as="geometry" />
        </mxCell>
        <mxCell id="ekOt9fe8lZH-tU6qronm-186" value="" style="edgeStyle=orthogonalEdgeStyle;rounded=0;orthogonalLoop=1;jettySize=auto;html=1;" edge="1" source="ekOt9fe8lZH-tU6qronm-187" target="ekOt9fe8lZH-tU6qronm-190" parent="1">
          <mxGeometry relative="1" as="geometry" />
        </mxCell>
        <mxCell id="ekOt9fe8lZH-tU6qronm-187" value="&lt;font style=&quot;font-size: 16px;&quot;&gt;Ask confirmation&lt;/font&gt;" style="shape=parallelogram;perimeter=parallelogramPerimeter;whiteSpace=wrap;html=1;fixedSize=1;" vertex="1" parent="1">
          <mxGeometry x="1792.6100000000001" y="1429" width="220" height="40" as="geometry" />
        </mxCell>
        <mxCell id="ekOt9fe8lZH-tU6qronm-188" value="" style="edgeStyle=orthogonalEdgeStyle;rounded=0;orthogonalLoop=1;jettySize=auto;html=1;" edge="1" source="ekOt9fe8lZH-tU6qronm-190" target="ekOt9fe8lZH-tU6qronm-192" parent="1">
          <mxGeometry relative="1" as="geometry" />
        </mxCell>
        <mxCell id="ekOt9fe8lZH-tU6qronm-189" value="" style="edgeStyle=orthogonalEdgeStyle;rounded=0;orthogonalLoop=1;jettySize=auto;html=1;" edge="1" source="ekOt9fe8lZH-tU6qronm-190" target="ekOt9fe8lZH-tU6qronm-195" parent="1">
          <mxGeometry relative="1" as="geometry" />
        </mxCell>
        <mxCell id="ekOt9fe8lZH-tU6qronm-190" value="&lt;span style=&quot;font-size: 16px;&quot;&gt;Confirmation = &#39;y&#39;&lt;/span&gt;" style="rhombus;whiteSpace=wrap;html=1;" vertex="1" parent="1">
          <mxGeometry x="1797.62" y="1514" width="211.01" height="70" as="geometry" />
        </mxCell>
        <mxCell id="ekOt9fe8lZH-tU6qronm-191" value="" style="edgeStyle=orthogonalEdgeStyle;rounded=0;orthogonalLoop=1;jettySize=auto;html=1;" edge="1" source="ekOt9fe8lZH-tU6qronm-192" target="ekOt9fe8lZH-tU6qronm-193" parent="1">
          <mxGeometry relative="1" as="geometry" />
        </mxCell>
        <mxCell id="ekOt9fe8lZH-tU6qronm-192" value="&lt;font style=&quot;font-size: 16px;&quot;&gt;Ask quantity&lt;/font&gt;" style="shape=parallelogram;perimeter=parallelogramPerimeter;whiteSpace=wrap;html=1;fixedSize=1;" vertex="1" parent="1">
          <mxGeometry x="1813.12" y="1629" width="180" height="40" as="geometry" />
        </mxCell>
        <mxCell id="ekOt9fe8lZH-tU6qronm-224" style="edgeStyle=orthogonalEdgeStyle;rounded=0;orthogonalLoop=1;jettySize=auto;html=1;entryX=1;entryY=0.5;entryDx=0;entryDy=0;" edge="1" parent="1" source="ekOt9fe8lZH-tU6qronm-193" target="ekOt9fe8lZH-tU6qronm-221">
          <mxGeometry relative="1" as="geometry">
            <Array as="points">
              <mxPoint x="1903" y="1905" />
            </Array>
          </mxGeometry>
        </mxCell>
        <mxCell id="ekOt9fe8lZH-tU6qronm-193" value="&lt;font style=&quot;font-size: 16px;&quot;&gt;Add item into cart&lt;/font&gt;" style="rounded=0;whiteSpace=wrap;html=1;" vertex="1" parent="1">
          <mxGeometry x="1807.4899999999998" y="1713" width="190.25" height="40" as="geometry" />
        </mxCell>
        <mxCell id="ekOt9fe8lZH-tU6qronm-194" value="" style="edgeStyle=orthogonalEdgeStyle;rounded=0;orthogonalLoop=1;jettySize=auto;html=1;" edge="1" source="ekOt9fe8lZH-tU6qronm-195" target="ekOt9fe8lZH-tU6qronm-196" parent="1">
          <mxGeometry relative="1" as="geometry" />
        </mxCell>
        <mxCell id="ekOt9fe8lZH-tU6qronm-195" value="&lt;span style=&quot;font-size: 16px;&quot;&gt;Confirmation = &#39;n&#39;&lt;/span&gt;" style="rhombus;whiteSpace=wrap;html=1;" vertex="1" parent="1">
          <mxGeometry x="2077.6099999999997" y="1514" width="211.01" height="70" as="geometry" />
        </mxCell>
        <mxCell id="ekOt9fe8lZH-tU6qronm-282" style="edgeStyle=orthogonalEdgeStyle;rounded=0;orthogonalLoop=1;jettySize=auto;html=1;endArrow=none;endFill=0;" edge="1" parent="1" source="ekOt9fe8lZH-tU6qronm-196">
          <mxGeometry relative="1" as="geometry">
            <mxPoint x="1610" y="1800" as="targetPoint" />
            <Array as="points">
              <mxPoint x="2183" y="1800" />
            </Array>
          </mxGeometry>
        </mxCell>
        <mxCell id="ekOt9fe8lZH-tU6qronm-196" value="&lt;font style=&quot;font-size: 16px;&quot;&gt;Display failed message&lt;/font&gt;" style="rounded=0;whiteSpace=wrap;html=1;" vertex="1" parent="1">
          <mxGeometry x="2078.3" y="1628" width="209.62" height="40" as="geometry" />
        </mxCell>
        <mxCell id="ekOt9fe8lZH-tU6qronm-198" value="" style="edgeStyle=orthogonalEdgeStyle;rounded=0;orthogonalLoop=1;jettySize=auto;html=1;" edge="1" source="ekOt9fe8lZH-tU6qronm-199" target="ekOt9fe8lZH-tU6qronm-201" parent="1">
          <mxGeometry relative="1" as="geometry" />
        </mxCell>
        <mxCell id="ekOt9fe8lZH-tU6qronm-230" style="edgeStyle=orthogonalEdgeStyle;rounded=0;orthogonalLoop=1;jettySize=auto;html=1;entryX=0;entryY=0.5;entryDx=0;entryDy=0;" edge="1" parent="1" source="ekOt9fe8lZH-tU6qronm-199" target="ekOt9fe8lZH-tU6qronm-227">
          <mxGeometry relative="1" as="geometry" />
        </mxCell>
        <mxCell id="ekOt9fe8lZH-tU6qronm-199" value="&lt;span style=&quot;font-size: 16px;&quot;&gt;choice = 6&lt;/span&gt;" style="rhombus;whiteSpace=wrap;html=1;" vertex="1" parent="1">
          <mxGeometry x="2355.87" y="1217" width="232.5" height="80" as="geometry" />
        </mxCell>
        <mxCell id="ekOt9fe8lZH-tU6qronm-200" style="edgeStyle=orthogonalEdgeStyle;rounded=0;orthogonalLoop=1;jettySize=auto;html=1;entryX=0.5;entryY=0;entryDx=0;entryDy=0;" edge="1" source="ekOt9fe8lZH-tU6qronm-201" target="ekOt9fe8lZH-tU6qronm-203" parent="1">
          <mxGeometry relative="1" as="geometry" />
        </mxCell>
        <mxCell id="ekOt9fe8lZH-tU6qronm-201" value="&lt;font style=&quot;font-size: 16px;&quot;&gt;Display product details&lt;br&gt;Annual Growner 1 - Leafy&lt;br&gt;&lt;/font&gt;" style="rounded=0;whiteSpace=wrap;html=1;" vertex="1" parent="1">
          <mxGeometry x="2359.62" y="1339" width="225" height="50" as="geometry" />
        </mxCell>
        <mxCell id="ekOt9fe8lZH-tU6qronm-202" value="" style="edgeStyle=orthogonalEdgeStyle;rounded=0;orthogonalLoop=1;jettySize=auto;html=1;" edge="1" source="ekOt9fe8lZH-tU6qronm-203" target="ekOt9fe8lZH-tU6qronm-206" parent="1">
          <mxGeometry relative="1" as="geometry" />
        </mxCell>
        <mxCell id="ekOt9fe8lZH-tU6qronm-203" value="&lt;font style=&quot;font-size: 16px;&quot;&gt;Ask confirmation&lt;/font&gt;" style="shape=parallelogram;perimeter=parallelogramPerimeter;whiteSpace=wrap;html=1;fixedSize=1;" vertex="1" parent="1">
          <mxGeometry x="2361.61" y="1429" width="220" height="40" as="geometry" />
        </mxCell>
        <mxCell id="ekOt9fe8lZH-tU6qronm-204" value="" style="edgeStyle=orthogonalEdgeStyle;rounded=0;orthogonalLoop=1;jettySize=auto;html=1;" edge="1" source="ekOt9fe8lZH-tU6qronm-206" target="ekOt9fe8lZH-tU6qronm-208" parent="1">
          <mxGeometry relative="1" as="geometry" />
        </mxCell>
        <mxCell id="ekOt9fe8lZH-tU6qronm-205" value="" style="edgeStyle=orthogonalEdgeStyle;rounded=0;orthogonalLoop=1;jettySize=auto;html=1;" edge="1" source="ekOt9fe8lZH-tU6qronm-206" target="ekOt9fe8lZH-tU6qronm-211" parent="1">
          <mxGeometry relative="1" as="geometry" />
        </mxCell>
        <mxCell id="ekOt9fe8lZH-tU6qronm-206" value="&lt;span style=&quot;font-size: 16px;&quot;&gt;Confirmation = &#39;y&#39;&lt;/span&gt;" style="rhombus;whiteSpace=wrap;html=1;" vertex="1" parent="1">
          <mxGeometry x="2366.62" y="1514" width="211.01" height="70" as="geometry" />
        </mxCell>
        <mxCell id="ekOt9fe8lZH-tU6qronm-207" value="" style="edgeStyle=orthogonalEdgeStyle;rounded=0;orthogonalLoop=1;jettySize=auto;html=1;" edge="1" source="ekOt9fe8lZH-tU6qronm-208" target="ekOt9fe8lZH-tU6qronm-209" parent="1">
          <mxGeometry relative="1" as="geometry" />
        </mxCell>
        <mxCell id="ekOt9fe8lZH-tU6qronm-208" value="&lt;font style=&quot;font-size: 16px;&quot;&gt;Ask quantity&lt;/font&gt;" style="shape=parallelogram;perimeter=parallelogramPerimeter;whiteSpace=wrap;html=1;fixedSize=1;" vertex="1" parent="1">
          <mxGeometry x="2382.12" y="1629" width="180" height="40" as="geometry" />
        </mxCell>
        <mxCell id="ekOt9fe8lZH-tU6qronm-225" style="edgeStyle=orthogonalEdgeStyle;rounded=0;orthogonalLoop=1;jettySize=auto;html=1;entryX=1;entryY=0.75;entryDx=0;entryDy=0;" edge="1" parent="1" source="ekOt9fe8lZH-tU6qronm-209" target="ekOt9fe8lZH-tU6qronm-221">
          <mxGeometry relative="1" as="geometry">
            <Array as="points">
              <mxPoint x="2472" y="1918" />
            </Array>
          </mxGeometry>
        </mxCell>
        <mxCell id="ekOt9fe8lZH-tU6qronm-209" value="&lt;font style=&quot;font-size: 16px;&quot;&gt;Add item into cart&lt;/font&gt;" style="rounded=0;whiteSpace=wrap;html=1;" vertex="1" parent="1">
          <mxGeometry x="2376.49" y="1713" width="190.25" height="40" as="geometry" />
        </mxCell>
        <mxCell id="ekOt9fe8lZH-tU6qronm-210" value="" style="edgeStyle=orthogonalEdgeStyle;rounded=0;orthogonalLoop=1;jettySize=auto;html=1;" edge="1" source="ekOt9fe8lZH-tU6qronm-211" target="ekOt9fe8lZH-tU6qronm-212" parent="1">
          <mxGeometry relative="1" as="geometry" />
        </mxCell>
        <mxCell id="ekOt9fe8lZH-tU6qronm-211" value="&lt;span style=&quot;font-size: 16px;&quot;&gt;Confirmation = &#39;n&#39;&lt;/span&gt;" style="rhombus;whiteSpace=wrap;html=1;" vertex="1" parent="1">
          <mxGeometry x="2646.6099999999997" y="1514" width="211.01" height="70" as="geometry" />
        </mxCell>
        <mxCell id="ekOt9fe8lZH-tU6qronm-283" style="edgeStyle=orthogonalEdgeStyle;rounded=0;orthogonalLoop=1;jettySize=auto;html=1;endArrow=none;endFill=0;" edge="1" parent="1" source="ekOt9fe8lZH-tU6qronm-212">
          <mxGeometry relative="1" as="geometry">
            <mxPoint x="2180" y="1800" as="targetPoint" />
            <Array as="points">
              <mxPoint x="2752" y="1800" />
            </Array>
          </mxGeometry>
        </mxCell>
        <mxCell id="ekOt9fe8lZH-tU6qronm-212" value="&lt;font style=&quot;font-size: 16px;&quot;&gt;Display failed message&lt;/font&gt;" style="rounded=0;whiteSpace=wrap;html=1;" vertex="1" parent="1">
          <mxGeometry x="2647.3" y="1628" width="209.62" height="40" as="geometry" />
        </mxCell>
        <mxCell id="ekOt9fe8lZH-tU6qronm-287" style="edgeStyle=orthogonalEdgeStyle;rounded=0;orthogonalLoop=1;jettySize=auto;html=1;endArrow=none;endFill=0;" edge="1" parent="1" source="ekOt9fe8lZH-tU6qronm-216">
          <mxGeometry relative="1" as="geometry">
            <mxPoint x="160" y="1200" as="targetPoint" />
            <Array as="points">
              <mxPoint x="2183" y="1170" />
              <mxPoint x="160" y="1170" />
              <mxPoint x="160" y="1200" />
            </Array>
          </mxGeometry>
        </mxCell>
        <mxCell id="ekOt9fe8lZH-tU6qronm-216" value="&lt;font style=&quot;font-size: 16px;&quot;&gt;Display cart message&lt;/font&gt;" style="rounded=0;whiteSpace=wrap;html=1;" vertex="1" parent="1">
          <mxGeometry x="2041.9900000000002" y="1080" width="241" height="50" as="geometry" />
        </mxCell>
        <mxCell id="ekOt9fe8lZH-tU6qronm-286" style="edgeStyle=orthogonalEdgeStyle;rounded=0;orthogonalLoop=1;jettySize=auto;html=1;endArrow=none;endFill=0;" edge="1" parent="1" source="ekOt9fe8lZH-tU6qronm-221">
          <mxGeometry relative="1" as="geometry">
            <mxPoint x="160" y="1970" as="targetPoint" />
            <Array as="points">
              <mxPoint x="1640" y="1950" />
              <mxPoint x="160" y="1950" />
            </Array>
          </mxGeometry>
        </mxCell>
        <mxCell id="ekOt9fe8lZH-tU6qronm-221" value="&lt;font style=&quot;font-size: 16px;&quot;&gt;Display cart message&lt;/font&gt;" style="rounded=0;whiteSpace=wrap;html=1;" vertex="1" parent="1">
          <mxGeometry x="1520" y="1880" width="241" height="50" as="geometry" />
        </mxCell>
        <mxCell id="ekOt9fe8lZH-tU6qronm-285" style="edgeStyle=orthogonalEdgeStyle;rounded=0;orthogonalLoop=1;jettySize=auto;html=1;endArrow=none;endFill=0;" edge="1" parent="1" source="ekOt9fe8lZH-tU6qronm-227">
          <mxGeometry relative="1" as="geometry">
            <mxPoint x="2750" y="1800" as="targetPoint" />
            <Array as="points">
              <mxPoint x="2980" y="1257" />
              <mxPoint x="2980" y="1800" />
            </Array>
          </mxGeometry>
        </mxCell>
        <mxCell id="ekOt9fe8lZH-tU6qronm-227" value="&lt;font style=&quot;font-size: 16px;&quot;&gt;Display Invalid Input&lt;/font&gt;" style="rounded=0;whiteSpace=wrap;html=1;" vertex="1" parent="1">
          <mxGeometry x="2740" y="1230.5" width="202.88" height="53" as="geometry" />
        </mxCell>
        <mxCell id="ekOt9fe8lZH-tU6qronm-279" style="edgeStyle=orthogonalEdgeStyle;rounded=0;orthogonalLoop=1;jettySize=auto;html=1;endArrow=none;endFill=0;" edge="1" parent="1" source="ekOt9fe8lZH-tU6qronm-231">
          <mxGeometry relative="1" as="geometry">
            <mxPoint x="2730" y="1060" as="targetPoint" />
            <Array as="points">
              <mxPoint x="2970" y="560" />
              <mxPoint x="2970" y="1060" />
            </Array>
          </mxGeometry>
        </mxCell>
        <mxCell id="ekOt9fe8lZH-tU6qronm-231" value="&lt;font style=&quot;font-size: 16px;&quot;&gt;Display Invalid Input&lt;/font&gt;" style="rounded=0;whiteSpace=wrap;html=1;" vertex="1" parent="1">
          <mxGeometry x="2720" y="533.5" width="202.88" height="53" as="geometry" />
        </mxCell>
        <mxCell id="ekOt9fe8lZH-tU6qronm-235" value="" style="edgeStyle=orthogonalEdgeStyle;rounded=0;orthogonalLoop=1;jettySize=auto;html=1;" edge="1" parent="1" source="ekOt9fe8lZH-tU6qronm-233" target="ekOt9fe8lZH-tU6qronm-234">
          <mxGeometry relative="1" as="geometry" />
        </mxCell>
        <mxCell id="ekOt9fe8lZH-tU6qronm-238" value="" style="edgeStyle=orthogonalEdgeStyle;rounded=0;orthogonalLoop=1;jettySize=auto;html=1;" edge="1" parent="1" source="ekOt9fe8lZH-tU6qronm-233" target="ekOt9fe8lZH-tU6qronm-237">
          <mxGeometry relative="1" as="geometry" />
        </mxCell>
        <mxCell id="ekOt9fe8lZH-tU6qronm-233" value="&lt;font style=&quot;font-size: 16px;&quot;&gt;case 2&lt;/font&gt;" style="rhombus;whiteSpace=wrap;html=1;" vertex="1" parent="1">
          <mxGeometry x="374.5" y="1980" width="193.5" height="80" as="geometry" />
        </mxCell>
        <mxCell id="ekOt9fe8lZH-tU6qronm-234" value="&lt;font style=&quot;font-size: 16px;&quot;&gt;Display cart message&lt;/font&gt;" style="rounded=0;whiteSpace=wrap;html=1;" vertex="1" parent="1">
          <mxGeometry x="670" y="1995" width="241" height="50" as="geometry" />
        </mxCell>
        <mxCell id="ekOt9fe8lZH-tU6qronm-240" value="" style="edgeStyle=orthogonalEdgeStyle;rounded=0;orthogonalLoop=1;jettySize=auto;html=1;" edge="1" parent="1" source="ekOt9fe8lZH-tU6qronm-237" target="ekOt9fe8lZH-tU6qronm-239">
          <mxGeometry relative="1" as="geometry" />
        </mxCell>
        <mxCell id="ekOt9fe8lZH-tU6qronm-259" style="edgeStyle=orthogonalEdgeStyle;rounded=0;orthogonalLoop=1;jettySize=auto;html=1;entryX=0.5;entryY=0;entryDx=0;entryDy=0;" edge="1" parent="1" source="ekOt9fe8lZH-tU6qronm-237" target="ekOt9fe8lZH-tU6qronm-258">
          <mxGeometry relative="1" as="geometry" />
        </mxCell>
        <mxCell id="ekOt9fe8lZH-tU6qronm-237" value="&lt;font style=&quot;font-size: 16px;&quot;&gt;case 3&lt;/font&gt;" style="rhombus;whiteSpace=wrap;html=1;" vertex="1" parent="1">
          <mxGeometry x="374.5" y="2150" width="193.5" height="80" as="geometry" />
        </mxCell>
        <mxCell id="ekOt9fe8lZH-tU6qronm-242" value="" style="edgeStyle=orthogonalEdgeStyle;rounded=0;orthogonalLoop=1;jettySize=auto;html=1;" edge="1" parent="1" source="ekOt9fe8lZH-tU6qronm-239" target="ekOt9fe8lZH-tU6qronm-241">
          <mxGeometry relative="1" as="geometry" />
        </mxCell>
        <mxCell id="ekOt9fe8lZH-tU6qronm-239" value="&lt;font style=&quot;font-size: 16px;&quot;&gt;Ask purchase&lt;/font&gt;" style="shape=parallelogram;perimeter=parallelogramPerimeter;whiteSpace=wrap;html=1;fixedSize=1;" vertex="1" parent="1">
          <mxGeometry x="670" y="2170" width="180" height="40" as="geometry" />
        </mxCell>
        <mxCell id="ekOt9fe8lZH-tU6qronm-244" value="" style="edgeStyle=orthogonalEdgeStyle;rounded=0;orthogonalLoop=1;jettySize=auto;html=1;" edge="1" parent="1" source="ekOt9fe8lZH-tU6qronm-241" target="ekOt9fe8lZH-tU6qronm-243">
          <mxGeometry relative="1" as="geometry" />
        </mxCell>
        <mxCell id="ekOt9fe8lZH-tU6qronm-252" value="" style="edgeStyle=orthogonalEdgeStyle;rounded=0;orthogonalLoop=1;jettySize=auto;html=1;" edge="1" parent="1" source="ekOt9fe8lZH-tU6qronm-241" target="ekOt9fe8lZH-tU6qronm-249">
          <mxGeometry relative="1" as="geometry" />
        </mxCell>
        <mxCell id="ekOt9fe8lZH-tU6qronm-241" value="&lt;span style=&quot;font-size: 16px;&quot;&gt;purchase = 1&lt;/span&gt;" style="rhombus;whiteSpace=wrap;html=1;" vertex="1" parent="1">
          <mxGeometry x="643.75" y="2260" width="232.5" height="80" as="geometry" />
        </mxCell>
        <mxCell id="ekOt9fe8lZH-tU6qronm-246" value="" style="edgeStyle=orthogonalEdgeStyle;rounded=0;orthogonalLoop=1;jettySize=auto;html=1;" edge="1" parent="1" source="ekOt9fe8lZH-tU6qronm-243" target="ekOt9fe8lZH-tU6qronm-245">
          <mxGeometry relative="1" as="geometry" />
        </mxCell>
        <mxCell id="ekOt9fe8lZH-tU6qronm-248" value="" style="edgeStyle=orthogonalEdgeStyle;rounded=0;orthogonalLoop=1;jettySize=auto;html=1;" edge="1" parent="1" source="ekOt9fe8lZH-tU6qronm-243" target="ekOt9fe8lZH-tU6qronm-247">
          <mxGeometry relative="1" as="geometry" />
        </mxCell>
        <mxCell id="ekOt9fe8lZH-tU6qronm-243" value="&lt;span style=&quot;font-size: 16px;&quot;&gt;purchase = 2&lt;/span&gt;" style="rhombus;whiteSpace=wrap;html=1;" vertex="1" parent="1">
          <mxGeometry x="950" y="2260" width="232.5" height="80" as="geometry" />
        </mxCell>
        <mxCell id="ekOt9fe8lZH-tU6qronm-245" value="&lt;font style=&quot;font-size: 16px;&quot;&gt;Display failed message&lt;/font&gt;" style="rounded=0;whiteSpace=wrap;html=1;" vertex="1" parent="1">
          <mxGeometry x="961.4400000000003" y="2390" width="209.62" height="40" as="geometry" />
        </mxCell>
        <mxCell id="ekOt9fe8lZH-tU6qronm-290" style="edgeStyle=orthogonalEdgeStyle;rounded=0;orthogonalLoop=1;jettySize=auto;html=1;endArrow=none;endFill=0;" edge="1" parent="1">
          <mxGeometry relative="1" as="geometry">
            <mxPoint x="740" y="2970" as="targetPoint" />
            <mxPoint x="1372.88" y="2300" as="sourcePoint" />
            <Array as="points">
              <mxPoint x="1500" y="2300" />
              <mxPoint x="1500" y="2970" />
            </Array>
          </mxGeometry>
        </mxCell>
        <mxCell id="ekOt9fe8lZH-tU6qronm-247" value="&lt;font style=&quot;font-size: 16px;&quot;&gt;Display Invalid Input&lt;/font&gt;" style="rounded=0;whiteSpace=wrap;html=1;" vertex="1" parent="1">
          <mxGeometry x="1280" y="2273.5" width="202.88" height="53" as="geometry" />
        </mxCell>
        <mxCell id="ekOt9fe8lZH-tU6qronm-253" value="" style="edgeStyle=orthogonalEdgeStyle;rounded=0;orthogonalLoop=1;jettySize=auto;html=1;" edge="1" parent="1" source="ekOt9fe8lZH-tU6qronm-249" target="ekOt9fe8lZH-tU6qronm-250">
          <mxGeometry relative="1" as="geometry" />
        </mxCell>
        <mxCell id="ekOt9fe8lZH-tU6qronm-249" value="&lt;font style=&quot;font-size: 16px;&quot;&gt;checkout cart&lt;/font&gt;" style="rounded=0;whiteSpace=wrap;html=1;" vertex="1" parent="1">
          <mxGeometry x="655.1900000000003" y="2390" width="209.62" height="40" as="geometry" />
        </mxCell>
        <mxCell id="ekOt9fe8lZH-tU6qronm-254" value="" style="edgeStyle=orthogonalEdgeStyle;rounded=0;orthogonalLoop=1;jettySize=auto;html=1;" edge="1" parent="1" source="ekOt9fe8lZH-tU6qronm-250" target="ekOt9fe8lZH-tU6qronm-251">
          <mxGeometry relative="1" as="geometry" />
        </mxCell>
        <mxCell id="ekOt9fe8lZH-tU6qronm-257" value="" style="edgeStyle=orthogonalEdgeStyle;rounded=0;orthogonalLoop=1;jettySize=auto;html=1;" edge="1" parent="1" source="ekOt9fe8lZH-tU6qronm-250" target="ekOt9fe8lZH-tU6qronm-256">
          <mxGeometry relative="1" as="geometry" />
        </mxCell>
        <mxCell id="ekOt9fe8lZH-tU6qronm-250" value="cart not empty" style="rhombus;whiteSpace=wrap;html=1;" vertex="1" parent="1">
          <mxGeometry x="675" y="2480" width="170" height="70" as="geometry" />
        </mxCell>
        <mxCell id="ekOt9fe8lZH-tU6qronm-263" value="" style="edgeStyle=orthogonalEdgeStyle;rounded=0;orthogonalLoop=1;jettySize=auto;html=1;" edge="1" parent="1" source="ekOt9fe8lZH-tU6qronm-251" target="ekOt9fe8lZH-tU6qronm-262">
          <mxGeometry relative="1" as="geometry" />
        </mxCell>
        <mxCell id="ekOt9fe8lZH-tU6qronm-251" value="cart empty" style="rhombus;whiteSpace=wrap;html=1;" vertex="1" parent="1">
          <mxGeometry x="984.44" y="2480" width="170" height="70" as="geometry" />
        </mxCell>
        <mxCell id="ekOt9fe8lZH-tU6qronm-289" style="edgeStyle=orthogonalEdgeStyle;rounded=0;orthogonalLoop=1;jettySize=auto;html=1;endArrow=none;endFill=0;" edge="1" parent="1">
          <mxGeometry relative="1" as="geometry">
            <mxPoint x="850" y="3065" as="targetPoint" />
            <mxPoint x="864.8100000000004" y="2605" as="sourcePoint" />
            <Array as="points">
              <mxPoint x="865" y="2610" />
              <mxPoint x="920" y="2610" />
              <mxPoint x="920" y="3065" />
            </Array>
          </mxGeometry>
        </mxCell>
        <mxCell id="ekOt9fe8lZH-tU6qronm-256" value="&lt;span style=&quot;font-size: 16px;&quot;&gt;Display Payment Invoice&lt;/span&gt;" style="rounded=0;whiteSpace=wrap;html=1;" vertex="1" parent="1">
          <mxGeometry x="655.1900000000003" y="2590" width="209.62" height="40" as="geometry" />
        </mxCell>
        <mxCell id="ekOt9fe8lZH-tU6qronm-261" value="" style="edgeStyle=orthogonalEdgeStyle;rounded=0;orthogonalLoop=1;jettySize=auto;html=1;" edge="1" parent="1" source="ekOt9fe8lZH-tU6qronm-258" target="ekOt9fe8lZH-tU6qronm-260">
          <mxGeometry relative="1" as="geometry" />
        </mxCell>
        <mxCell id="ekOt9fe8lZH-tU6qronm-271" value="" style="edgeStyle=orthogonalEdgeStyle;rounded=0;orthogonalLoop=1;jettySize=auto;html=1;" edge="1" parent="1" source="ekOt9fe8lZH-tU6qronm-258" target="ekOt9fe8lZH-tU6qronm-268">
          <mxGeometry relative="1" as="geometry" />
        </mxCell>
        <mxCell id="ekOt9fe8lZH-tU6qronm-258" value="&lt;font style=&quot;font-size: 16px;&quot;&gt;case 4&lt;/font&gt;" style="rhombus;whiteSpace=wrap;html=1;" vertex="1" parent="1">
          <mxGeometry x="374.5" y="2690" width="193.5" height="80" as="geometry" />
        </mxCell>
        <mxCell id="ekOt9fe8lZH-tU6qronm-288" style="edgeStyle=orthogonalEdgeStyle;rounded=0;orthogonalLoop=1;jettySize=auto;html=1;entryX=1;entryY=0.5;entryDx=0;entryDy=0;" edge="1" parent="1" source="ekOt9fe8lZH-tU6qronm-260" target="ekOt9fe8lZH-tU6qronm-267">
          <mxGeometry relative="1" as="geometry">
            <Array as="points">
              <mxPoint x="900" y="2730" />
              <mxPoint x="900" y="3065" />
            </Array>
          </mxGeometry>
        </mxCell>
        <mxCell id="ekOt9fe8lZH-tU6qronm-260" value="&lt;span style=&quot;font-size: 16px;&quot;&gt;Display exit message&lt;/span&gt;" style="rounded=0;whiteSpace=wrap;html=1;" vertex="1" parent="1">
          <mxGeometry x="655.1900000000003" y="2710" width="209.62" height="40" as="geometry" />
        </mxCell>
        <mxCell id="ekOt9fe8lZH-tU6qronm-262" value="&lt;span style=&quot;font-size: 16px;&quot;&gt;Display failed message&lt;/span&gt;" style="rounded=0;whiteSpace=wrap;html=1;" vertex="1" parent="1">
          <mxGeometry x="964.6300000000002" y="2590" width="209.62" height="40" as="geometry" />
        </mxCell>
        <mxCell id="ekOt9fe8lZH-tU6qronm-267" value="&lt;span style=&quot;font-size: 16px;&quot;&gt;END&lt;/span&gt;" style="ellipse;whiteSpace=wrap;html=1;" vertex="1" parent="1">
          <mxGeometry x="394" y="3040" width="125" height="50" as="geometry" />
        </mxCell>
        <mxCell id="ekOt9fe8lZH-tU6qronm-270" value="" style="edgeStyle=orthogonalEdgeStyle;rounded=0;orthogonalLoop=1;jettySize=auto;html=1;" edge="1" parent="1" source="ekOt9fe8lZH-tU6qronm-268" target="ekOt9fe8lZH-tU6qronm-269">
          <mxGeometry relative="1" as="geometry" />
        </mxCell>
        <mxCell id="ekOt9fe8lZH-tU6qronm-268" value="&lt;font style=&quot;font-size: 16px;&quot;&gt;default&lt;/font&gt;" style="rhombus;whiteSpace=wrap;html=1;" vertex="1" parent="1">
          <mxGeometry x="374.5" y="2840" width="193.5" height="80" as="geometry" />
        </mxCell>
        <mxCell id="ekOt9fe8lZH-tU6qronm-269" value="&lt;font style=&quot;font-size: 16px;&quot;&gt;Display Invalid Input&lt;/font&gt;" style="rounded=0;whiteSpace=wrap;html=1;" vertex="1" parent="1">
          <mxGeometry x="655.19" y="2860" width="180" height="40" as="geometry" />
        </mxCell>
        <mxCell id="ekOt9fe8lZH-tU6qronm-292" value="&lt;font style=&quot;font-size: 15px;&quot;&gt;Yes&lt;/font&gt;" style="text;html=1;strokeColor=none;fillColor=none;align=center;verticalAlign=middle;whiteSpace=wrap;rounded=0;" vertex="1" parent="1">
          <mxGeometry x="568" y="525" width="60" height="30" as="geometry" />
        </mxCell>
        <mxCell id="ekOt9fe8lZH-tU6qronm-295" style="edgeStyle=orthogonalEdgeStyle;rounded=0;orthogonalLoop=1;jettySize=auto;html=1;" edge="1" parent="1" source="ekOt9fe8lZH-tU6qronm-269">
          <mxGeometry relative="1" as="geometry">
            <mxPoint x="370" y="360" as="targetPoint" />
            <Array as="points">
              <mxPoint x="745" y="2970" />
              <mxPoint x="160" y="2970" />
              <mxPoint x="160" y="360" />
            </Array>
          </mxGeometry>
        </mxCell>
        <mxCell id="ekOt9fe8lZH-tU6qronm-296" value="&lt;font style=&quot;font-size: 15px;&quot;&gt;No&lt;/font&gt;" style="text;html=1;strokeColor=none;fillColor=none;align=center;verticalAlign=middle;whiteSpace=wrap;rounded=0;" vertex="1" parent="1">
          <mxGeometry x="1131.44" y="525" width="60" height="30" as="geometry" />
        </mxCell>
        <mxCell id="ekOt9fe8lZH-tU6qronm-297" value="&lt;font style=&quot;font-size: 15px;&quot;&gt;No&lt;/font&gt;" style="text;html=1;strokeColor=none;fillColor=none;align=center;verticalAlign=middle;whiteSpace=wrap;rounded=0;" vertex="1" parent="1">
          <mxGeometry x="1585.5" y="525" width="60" height="30" as="geometry" />
        </mxCell>
        <mxCell id="ekOt9fe8lZH-tU6qronm-299" value="&lt;font style=&quot;font-size: 15px;&quot;&gt;No&lt;/font&gt;" style="text;html=1;strokeColor=none;fillColor=none;align=center;verticalAlign=middle;whiteSpace=wrap;rounded=0;" vertex="1" parent="1">
          <mxGeometry x="2153.11" y="525" width="60" height="30" as="geometry" />
        </mxCell>
        <mxCell id="ekOt9fe8lZH-tU6qronm-300" value="&lt;font style=&quot;font-size: 15px;&quot;&gt;No&lt;/font&gt;" style="text;html=1;strokeColor=none;fillColor=none;align=center;verticalAlign=middle;whiteSpace=wrap;rounded=0;" vertex="1" parent="1">
          <mxGeometry x="2588.37" y="525" width="60" height="30" as="geometry" />
        </mxCell>
        <mxCell id="ekOt9fe8lZH-tU6qronm-301" value="&lt;font style=&quot;font-size: 15px;&quot;&gt;Yes&lt;/font&gt;" style="text;html=1;strokeColor=none;fillColor=none;align=center;verticalAlign=middle;whiteSpace=wrap;rounded=0;" vertex="1" parent="1">
          <mxGeometry x="990" y="700" width="60" height="30" as="geometry" />
        </mxCell>
        <mxCell id="ekOt9fe8lZH-tU6qronm-302" value="&lt;font style=&quot;font-size: 15px;&quot;&gt;Yes&lt;/font&gt;" style="text;html=1;strokeColor=none;fillColor=none;align=center;verticalAlign=middle;whiteSpace=wrap;rounded=0;" vertex="1" parent="1">
          <mxGeometry x="990" y="1300" width="60" height="30" as="geometry" />
        </mxCell>
        <mxCell id="ekOt9fe8lZH-tU6qronm-303" value="&lt;font style=&quot;font-size: 15px;&quot;&gt;No&lt;/font&gt;" style="text;html=1;strokeColor=none;fillColor=none;align=center;verticalAlign=middle;whiteSpace=wrap;rounded=0;" vertex="1" parent="1">
          <mxGeometry x="1441.02" y="800" width="60" height="30" as="geometry" />
        </mxCell>
        <mxCell id="ekOt9fe8lZH-tU6qronm-304" value="&lt;font style=&quot;font-size: 15px;&quot;&gt;Yes&lt;/font&gt;" style="text;html=1;strokeColor=none;fillColor=none;align=center;verticalAlign=middle;whiteSpace=wrap;rounded=0;" vertex="1" parent="1">
          <mxGeometry x="1330" y="861" width="60" height="30" as="geometry" />
        </mxCell>
        <mxCell id="ekOt9fe8lZH-tU6qronm-305" value="&lt;font style=&quot;font-size: 15px;&quot;&gt;No&lt;/font&gt;" style="text;html=1;strokeColor=none;fillColor=none;align=center;verticalAlign=middle;whiteSpace=wrap;rounded=0;" vertex="1" parent="1">
          <mxGeometry x="1985.99" y="800" width="60" height="30" as="geometry" />
        </mxCell>
        <mxCell id="ekOt9fe8lZH-tU6qronm-306" value="&lt;font style=&quot;font-size: 15px;&quot;&gt;Yes&lt;/font&gt;" style="text;html=1;strokeColor=none;fillColor=none;align=center;verticalAlign=middle;whiteSpace=wrap;rounded=0;" vertex="1" parent="1">
          <mxGeometry x="1872.61" y="861" width="60" height="30" as="geometry" />
        </mxCell>
        <mxCell id="ekOt9fe8lZH-tU6qronm-307" value="&lt;font style=&quot;font-size: 15px;&quot;&gt;No&lt;/font&gt;" style="text;html=1;strokeColor=none;fillColor=none;align=center;verticalAlign=middle;whiteSpace=wrap;rounded=0;" vertex="1" parent="1">
          <mxGeometry x="2562.12" y="800" width="60" height="30" as="geometry" />
        </mxCell>
        <mxCell id="ekOt9fe8lZH-tU6qronm-308" value="&lt;font style=&quot;font-size: 15px;&quot;&gt;Yes&lt;/font&gt;" style="text;html=1;strokeColor=none;fillColor=none;align=center;verticalAlign=middle;whiteSpace=wrap;rounded=0;" vertex="1" parent="1">
          <mxGeometry x="2450" y="861" width="60" height="30" as="geometry" />
        </mxCell>
        <mxCell id="ekOt9fe8lZH-tU6qronm-309" value="&lt;font style=&quot;font-size: 15px;&quot;&gt;No&lt;/font&gt;" style="text;html=1;strokeColor=none;fillColor=none;align=center;verticalAlign=middle;whiteSpace=wrap;rounded=0;" vertex="1" parent="1">
          <mxGeometry x="1131.44" y="1230.5" width="60" height="30" as="geometry" />
        </mxCell>
        <mxCell id="ekOt9fe8lZH-tU6qronm-310" value="&lt;span style=&quot;font-size: 15px;&quot;&gt;No&lt;/span&gt;" style="text;html=1;strokeColor=none;fillColor=none;align=center;verticalAlign=middle;whiteSpace=wrap;rounded=0;" vertex="1" parent="1">
          <mxGeometry x="1600" y="1230.5" width="60" height="30" as="geometry" />
        </mxCell>
        <mxCell id="ekOt9fe8lZH-tU6qronm-312" value="&lt;font style=&quot;font-size: 15px;&quot;&gt;No&lt;/font&gt;" style="text;html=1;strokeColor=none;fillColor=none;align=center;verticalAlign=middle;whiteSpace=wrap;rounded=0;" vertex="1" parent="1">
          <mxGeometry x="2160" y="1230.5" width="60" height="30" as="geometry" />
        </mxCell>
        <mxCell id="ekOt9fe8lZH-tU6qronm-313" value="&lt;font style=&quot;font-size: 15px;&quot;&gt;No&lt;/font&gt;" style="text;html=1;strokeColor=none;fillColor=none;align=center;verticalAlign=middle;whiteSpace=wrap;rounded=0;" vertex="1" parent="1">
          <mxGeometry x="2640" y="1230.5" width="60" height="30" as="geometry" />
        </mxCell>
        <mxCell id="ekOt9fe8lZH-tU6qronm-314" value="&lt;font style=&quot;font-size: 15px;&quot;&gt;Yes&lt;/font&gt;" style="text;html=1;strokeColor=none;fillColor=none;align=center;verticalAlign=middle;whiteSpace=wrap;rounded=0;" vertex="1" parent="1">
          <mxGeometry x="990" y="1589" width="60" height="30" as="geometry" />
        </mxCell>
        <mxCell id="ekOt9fe8lZH-tU6qronm-315" value="&lt;font style=&quot;font-size: 15px;&quot;&gt;No&lt;/font&gt;" style="text;html=1;strokeColor=none;fillColor=none;align=center;verticalAlign=middle;whiteSpace=wrap;rounded=0;" vertex="1" parent="1">
          <mxGeometry x="824.5" y="1516" width="60" height="30" as="geometry" />
        </mxCell>
        <mxCell id="ekOt9fe8lZH-tU6qronm-316" value="&lt;font style=&quot;font-size: 15px;&quot;&gt;Yes&lt;/font&gt;" style="text;html=1;strokeColor=none;fillColor=none;align=center;verticalAlign=middle;whiteSpace=wrap;rounded=0;" vertex="1" parent="1">
          <mxGeometry x="1330" y="1589" width="60" height="30" as="geometry" />
        </mxCell>
        <mxCell id="ekOt9fe8lZH-tU6qronm-317" value="&lt;font style=&quot;font-size: 15px;&quot;&gt;Yes&lt;/font&gt;" style="text;html=1;strokeColor=none;fillColor=none;align=center;verticalAlign=middle;whiteSpace=wrap;rounded=0;" vertex="1" parent="1">
          <mxGeometry x="1900" y="1589" width="60" height="30" as="geometry" />
        </mxCell>
        <mxCell id="ekOt9fe8lZH-tU6qronm-318" value="&lt;font style=&quot;font-size: 15px;&quot;&gt;Yes&lt;/font&gt;" style="text;html=1;strokeColor=none;fillColor=none;align=center;verticalAlign=middle;whiteSpace=wrap;rounded=0;" vertex="1" parent="1">
          <mxGeometry x="2481.5" y="1584" width="60" height="30" as="geometry" />
        </mxCell>
        <mxCell id="ekOt9fe8lZH-tU6qronm-319" value="&lt;font style=&quot;font-size: 15px;&quot;&gt;No&lt;/font&gt;" style="text;html=1;strokeColor=none;fillColor=none;align=center;verticalAlign=middle;whiteSpace=wrap;rounded=0;" vertex="1" parent="1">
          <mxGeometry x="1441.02" y="1516" width="60" height="30" as="geometry" />
        </mxCell>
        <mxCell id="ekOt9fe8lZH-tU6qronm-320" value="&lt;span style=&quot;font-size: 15px;&quot;&gt;No&lt;/span&gt;" style="text;html=1;strokeColor=none;fillColor=none;align=center;verticalAlign=middle;whiteSpace=wrap;rounded=0;" vertex="1" parent="1">
          <mxGeometry x="2008.63" y="1516" width="60" height="30" as="geometry" />
        </mxCell>
        <mxCell id="ekOt9fe8lZH-tU6qronm-321" value="&lt;font style=&quot;font-size: 15px;&quot;&gt;No&lt;/font&gt;" style="text;html=1;strokeColor=none;fillColor=none;align=center;verticalAlign=middle;whiteSpace=wrap;rounded=0;" vertex="1" parent="1">
          <mxGeometry x="2577.63" y="1514" width="60" height="30" as="geometry" />
        </mxCell>
        <mxCell id="ekOt9fe8lZH-tU6qronm-322" value="&lt;font style=&quot;font-size: 15px;&quot;&gt;Yes&lt;/font&gt;" style="text;html=1;strokeColor=none;fillColor=none;align=center;verticalAlign=middle;whiteSpace=wrap;rounded=0;" vertex="1" parent="1">
          <mxGeometry x="1330" y="1300" width="60" height="30" as="geometry" />
        </mxCell>
        <mxCell id="ekOt9fe8lZH-tU6qronm-323" value="&lt;font style=&quot;font-size: 15px;&quot;&gt;Yes&lt;/font&gt;" style="text;html=1;strokeColor=none;fillColor=none;align=center;verticalAlign=middle;whiteSpace=wrap;rounded=0;" vertex="1" parent="1">
          <mxGeometry x="1900" y="1300" width="60" height="30" as="geometry" />
        </mxCell>
        <mxCell id="ekOt9fe8lZH-tU6qronm-324" value="&lt;font style=&quot;font-size: 15px;&quot;&gt;Yes&lt;/font&gt;" style="text;html=1;strokeColor=none;fillColor=none;align=center;verticalAlign=middle;whiteSpace=wrap;rounded=0;" vertex="1" parent="1">
          <mxGeometry x="2465.99" y="1300" width="60" height="30" as="geometry" />
        </mxCell>
        <mxCell id="ekOt9fe8lZH-tU6qronm-325" value="&lt;font style=&quot;font-size: 15px;&quot;&gt;Yes&lt;/font&gt;" style="text;html=1;strokeColor=none;fillColor=none;align=center;verticalAlign=middle;whiteSpace=wrap;rounded=0;" vertex="1" parent="1">
          <mxGeometry x="1610.5" y="1589" width="60" height="30" as="geometry" />
        </mxCell>
        <mxCell id="ekOt9fe8lZH-tU6qronm-326" value="&lt;font style=&quot;font-size: 15px;&quot;&gt;Yes&lt;/font&gt;" style="text;html=1;strokeColor=none;fillColor=none;align=center;verticalAlign=middle;whiteSpace=wrap;rounded=0;" vertex="1" parent="1">
          <mxGeometry x="2180" y="1589" width="60" height="30" as="geometry" />
        </mxCell>
        <mxCell id="ekOt9fe8lZH-tU6qronm-327" value="&lt;font style=&quot;font-size: 15px;&quot;&gt;Yes&lt;/font&gt;" style="text;html=1;strokeColor=none;fillColor=none;align=center;verticalAlign=middle;whiteSpace=wrap;rounded=0;" vertex="1" parent="1">
          <mxGeometry x="2750" y="1589" width="60" height="30" as="geometry" />
        </mxCell>
        <mxCell id="ekOt9fe8lZH-tU6qronm-328" value="&lt;font style=&quot;font-size: 15px;&quot;&gt;Yes&lt;/font&gt;" style="text;html=1;strokeColor=none;fillColor=none;align=center;verticalAlign=middle;whiteSpace=wrap;rounded=0;" vertex="1" parent="1">
          <mxGeometry x="2722.11" y="861" width="60" height="30" as="geometry" />
        </mxCell>
        <mxCell id="ekOt9fe8lZH-tU6qronm-329" value="&lt;font style=&quot;font-size: 15px;&quot;&gt;Yes&lt;/font&gt;" style="text;html=1;strokeColor=none;fillColor=none;align=center;verticalAlign=middle;whiteSpace=wrap;rounded=0;" vertex="1" parent="1">
          <mxGeometry x="2153.11" y="861" width="60" height="30" as="geometry" />
        </mxCell>
        <mxCell id="ekOt9fe8lZH-tU6qronm-330" value="&lt;font style=&quot;font-size: 15px;&quot;&gt;Yes&lt;/font&gt;" style="text;html=1;strokeColor=none;fillColor=none;align=center;verticalAlign=middle;whiteSpace=wrap;rounded=0;" vertex="1" parent="1">
          <mxGeometry x="1610.5" y="861" width="60" height="30" as="geometry" />
        </mxCell>
        <mxCell id="ekOt9fe8lZH-tU6qronm-331" value="&lt;font style=&quot;font-size: 15px;&quot;&gt;Yes&lt;/font&gt;" style="text;html=1;strokeColor=none;fillColor=none;align=center;verticalAlign=middle;whiteSpace=wrap;rounded=0;" vertex="1" parent="1">
          <mxGeometry x="1330" y="595" width="60" height="30" as="geometry" />
        </mxCell>
        <mxCell id="ekOt9fe8lZH-tU6qronm-332" value="&lt;font style=&quot;font-size: 15px;&quot;&gt;Yes&lt;/font&gt;" style="text;html=1;strokeColor=none;fillColor=none;align=center;verticalAlign=middle;whiteSpace=wrap;rounded=0;" vertex="1" parent="1">
          <mxGeometry x="1872.61" y="595" width="60" height="30" as="geometry" />
        </mxCell>
        <mxCell id="ekOt9fe8lZH-tU6qronm-333" value="&lt;font style=&quot;font-size: 15px;&quot;&gt;Yes&lt;/font&gt;" style="text;html=1;strokeColor=none;fillColor=none;align=center;verticalAlign=middle;whiteSpace=wrap;rounded=0;" vertex="1" parent="1">
          <mxGeometry x="2450" y="595" width="60" height="30" as="geometry" />
        </mxCell>
        <mxCell id="ekOt9fe8lZH-tU6qronm-337" style="edgeStyle=orthogonalEdgeStyle;rounded=0;orthogonalLoop=1;jettySize=auto;html=1;entryX=1;entryY=0.5;entryDx=0;entryDy=0;" edge="1" parent="1" source="ekOt9fe8lZH-tU6qronm-335" target="ekOt9fe8lZH-tU6qronm-64">
          <mxGeometry relative="1" as="geometry">
            <Array as="points">
              <mxPoint x="850" y="454" />
              <mxPoint x="850" y="363" />
            </Array>
          </mxGeometry>
        </mxCell>
        <mxCell id="ekOt9fe8lZH-tU6qronm-335" value="&lt;font style=&quot;font-size: 16px;&quot;&gt;Display Invalid Input&lt;/font&gt;" style="rounded=0;whiteSpace=wrap;html=1;" vertex="1" parent="1">
          <mxGeometry x="655.19" y="434" width="180" height="40" as="geometry" />
        </mxCell>
        <mxCell id="ekOt9fe8lZH-tU6qronm-339" value="&lt;font style=&quot;font-size: 15px;&quot;&gt;No&lt;/font&gt;" style="text;html=1;strokeColor=none;fillColor=none;align=center;verticalAlign=middle;whiteSpace=wrap;rounded=0;" vertex="1" parent="1">
          <mxGeometry x="574" y="430" width="60" height="30" as="geometry" />
        </mxCell>
        <mxCell id="ekOt9fe8lZH-tU6qronm-340" value="&lt;font style=&quot;font-size: 15px;&quot;&gt;Yes&lt;/font&gt;" style="text;html=1;strokeColor=none;fillColor=none;align=center;verticalAlign=middle;whiteSpace=wrap;rounded=0;" vertex="1" parent="1">
          <mxGeometry x="580" y="1990" width="60" height="30" as="geometry" />
        </mxCell>
        <mxCell id="ekOt9fe8lZH-tU6qronm-341" value="&lt;font style=&quot;font-size: 15px;&quot;&gt;Yes&lt;/font&gt;" style="text;html=1;strokeColor=none;fillColor=none;align=center;verticalAlign=middle;whiteSpace=wrap;rounded=0;" vertex="1" parent="1">
          <mxGeometry x="583.75" y="2160" width="60" height="30" as="geometry" />
        </mxCell>
        <mxCell id="ekOt9fe8lZH-tU6qronm-342" value="&lt;font style=&quot;font-size: 15px;&quot;&gt;No&lt;/font&gt;" style="text;html=1;strokeColor=none;fillColor=none;align=center;verticalAlign=middle;whiteSpace=wrap;rounded=0;" vertex="1" parent="1">
          <mxGeometry x="460" y="1910" width="60" height="30" as="geometry" />
        </mxCell>
        <mxCell id="ekOt9fe8lZH-tU6qronm-343" value="&lt;font style=&quot;font-size: 15px;&quot;&gt;No&lt;/font&gt;" style="text;html=1;strokeColor=none;fillColor=none;align=center;verticalAlign=middle;whiteSpace=wrap;rounded=0;" vertex="1" parent="1">
          <mxGeometry x="460" y="2100" width="60" height="30" as="geometry" />
        </mxCell>
        <mxCell id="ekOt9fe8lZH-tU6qronm-344" value="&lt;font style=&quot;font-size: 15px;&quot;&gt;No&lt;/font&gt;" style="text;html=1;strokeColor=none;fillColor=none;align=center;verticalAlign=middle;whiteSpace=wrap;rounded=0;" vertex="1" parent="1">
          <mxGeometry x="460" y="2640" width="60" height="30" as="geometry" />
        </mxCell>
        <mxCell id="ekOt9fe8lZH-tU6qronm-345" value="&lt;font style=&quot;font-size: 15px;&quot;&gt;No&lt;/font&gt;" style="text;html=1;strokeColor=none;fillColor=none;align=center;verticalAlign=middle;whiteSpace=wrap;rounded=0;" vertex="1" parent="1">
          <mxGeometry x="460" y="2800" width="60" height="30" as="geometry" />
        </mxCell>
        <mxCell id="ekOt9fe8lZH-tU6qronm-346" value="&lt;font style=&quot;font-size: 15px;&quot;&gt;Yes&lt;/font&gt;" style="text;html=1;strokeColor=none;fillColor=none;align=center;verticalAlign=middle;whiteSpace=wrap;rounded=0;" vertex="1" parent="1">
          <mxGeometry x="574" y="2850" width="60" height="30" as="geometry" />
        </mxCell>
        <mxCell id="ekOt9fe8lZH-tU6qronm-347" value="&lt;font style=&quot;font-size: 15px;&quot;&gt;Yes&lt;/font&gt;" style="text;html=1;strokeColor=none;fillColor=none;align=center;verticalAlign=middle;whiteSpace=wrap;rounded=0;" vertex="1" parent="1">
          <mxGeometry x="574" y="2700" width="60" height="30" as="geometry" />
        </mxCell>
        <mxCell id="ekOt9fe8lZH-tU6qronm-348" value="&lt;font style=&quot;font-size: 15px;&quot;&gt;No&lt;/font&gt;" style="text;html=1;strokeColor=none;fillColor=none;align=center;verticalAlign=middle;whiteSpace=wrap;rounded=0;" vertex="1" parent="1">
          <mxGeometry x="870" y="2490" width="60" height="30" as="geometry" />
        </mxCell>
        <mxCell id="ekOt9fe8lZH-tU6qronm-349" value="&lt;font style=&quot;font-size: 15px;&quot;&gt;Yes&lt;/font&gt;" style="text;html=1;strokeColor=none;fillColor=none;align=center;verticalAlign=middle;whiteSpace=wrap;rounded=0;" vertex="1" parent="1">
          <mxGeometry x="750" y="2550" width="60" height="30" as="geometry" />
        </mxCell>
        <mxCell id="ekOt9fe8lZH-tU6qronm-350" value="&lt;font style=&quot;font-size: 15px;&quot;&gt;Yes&lt;/font&gt;" style="text;html=1;strokeColor=none;fillColor=none;align=center;verticalAlign=middle;whiteSpace=wrap;rounded=0;" vertex="1" parent="1">
          <mxGeometry x="1059.25" y="2550" width="60" height="30" as="geometry" />
        </mxCell>
        <mxCell id="ekOt9fe8lZH-tU6qronm-351" value="&lt;font style=&quot;font-size: 15px;&quot;&gt;Yes&lt;/font&gt;" style="text;html=1;strokeColor=none;fillColor=none;align=center;verticalAlign=middle;whiteSpace=wrap;rounded=0;" vertex="1" parent="1">
          <mxGeometry x="1060" y="2350" width="60" height="30" as="geometry" />
        </mxCell>
        <mxCell id="ekOt9fe8lZH-tU6qronm-352" value="&lt;font style=&quot;font-size: 15px;&quot;&gt;Yes&lt;/font&gt;" style="text;html=1;strokeColor=none;fillColor=none;align=center;verticalAlign=middle;whiteSpace=wrap;rounded=0;" vertex="1" parent="1">
          <mxGeometry x="750" y="2350" width="60" height="30" as="geometry" />
        </mxCell>
        <mxCell id="ekOt9fe8lZH-tU6qronm-353" value="&lt;font style=&quot;font-size: 15px;&quot;&gt;No&lt;/font&gt;" style="text;html=1;strokeColor=none;fillColor=none;align=center;verticalAlign=middle;whiteSpace=wrap;rounded=0;" vertex="1" parent="1">
          <mxGeometry x="878.5" y="2273.5" width="60" height="30" as="geometry" />
        </mxCell>
        <mxCell id="ekOt9fe8lZH-tU6qronm-354" value="&lt;font style=&quot;font-size: 15px;&quot;&gt;No&lt;/font&gt;" style="text;html=1;strokeColor=none;fillColor=none;align=center;verticalAlign=middle;whiteSpace=wrap;rounded=0;" vertex="1" parent="1">
          <mxGeometry x="1200" y="2273.5" width="60" height="30" as="geometry" />
        </mxCell>
        <mxCell id="ekOt9fe8lZH-tU6qronm-355" value="&lt;font style=&quot;font-size: 15px;&quot;&gt;Yes&lt;/font&gt;" style="text;html=1;strokeColor=none;fillColor=none;align=center;verticalAlign=middle;whiteSpace=wrap;rounded=0;" vertex="1" parent="1">
          <mxGeometry x="462" y="482" width="60" height="30" as="geometry" />
        </mxCell>
      </root>
    </mxGraphModel>
  </diagram>
</mxfile>
